<svg xmlns="http://www.w3.org/2000/svg"><defs><font id="DroidSans" horiz-adv-x="1062"><font-face font-family="Droid Sans" units-per-em="2048" panose-1="2 11 6 6 3 8 4 2 2 4" ascent="1907" descent="-492" alphabetic="0"/><glyph glyph-name="space" horiz-adv-x="532"/><glyph unicode="!" glyph-name="exclam" horiz-adv-x="551" d="M336 414H215l-51 1048h223L336 414zM147 111q0 38 10 64t27 43 40 24 50 8q26 0 49-7t41-24 27-43 10-65q0-37-10-63T364 4t-40-25-50-8q-27 0-50 8T184 4t-27 43-10 64z"/><glyph unicode="&quot;" glyph-name="quotedbl" horiz-adv-x="823" d="M330 1462l-41-528H174l-41 528h197zm360 0l-41-528H535l-41 528h196z"/><glyph unicode="#" glyph-name="numbersign" horiz-adv-x="1323" d="M983 893l-63-328h280V428H893L811 0H664l84 428H457L375 0H231l78 428H51v137h285l65 328H127v137h299l82 432h147l-82-432h293l84 432h144l-84-432h262V893H983zM483 565h291l64 328H547l-64-328z"/><glyph unicode="$" glyph-name="dollar" horiz-adv-x="1128" d="M985 446q0-70-25-127t-71-99-113-69-151-40v-230H487v221q-50 0-101 4t-99 14-90 22-74 30v172q33-16 76-32t92-30 98-21 98-9v434q-89 30-154 63t-109 75-64 98-21 129q0 67 24 122t70 97 110 68 144 36v180h138v-176q100-5 184-26t152-52l-66-145q-56 25-126 45t-144 27V805q88-31 155-64t113-74 69-95 23-126zm-176 0q0 33-10 60t-31 50-57 42-86 37V262q93 14 138 63t46 121zm-494 603q0-36 8-64t29-52 53-43 82-36v369q-89-16-130-60t-42-114z"/><glyph unicode="%" glyph-name="percent" horiz-adv-x="1690" d="M250 1026q0-165 35-247t116-83q156 0 156 330 0 328-156 328-80 0-115-81t-36-247zm455 0q0-108-18-194t-55-145-94-90-137-32q-73 0-129 31t-94 91-57 145-19 194q0 108 17 193t54 143 93 90 135 31q75 0 131-31t95-89 58-144 20-193zm428-586q0-165 35-247t116-82q156 0 156 329 0 328-156 328-80 0-115-81t-36-247zm454 0q0-108-17-193t-55-145-94-90-137-32q-74 0-130 31t-93 91-57 144-19 194q0 108 17 193t54 143 93 90 135 31q75 0 131-31t95-89 57-144 20-193zm-256 1022L520 0H362l812 1462h157z"/><glyph unicode="&amp;" glyph-name="ampersand" horiz-adv-x="1438" d="M422 1165q0-34 8-66t24-65 43-66 62-71q59 35 102 66t71 63 42 67 14 76q0 36-12 66t-36 53-57 34-75 13q-86 0-136-44t-50-126zM557 141q58 0 107 11t91 32 78 47 68 58L514 696q-52-33-92-64t-67-68-42-78-14-99q0-54 17-99t51-78 81-51 109-18zM109 381q0 78 20 139t58 111 94 93 127 85q-31 36-61 74t-52 82-37 93-14 107q0 75 25 134t72 101 116 63 157 22q83 0 148-21t111-63 70-101 24-135q0-64-25-118t-67-101-96-86-115-76l352-372q27 29 48 59t39 64 30 73 24 86h184q-15-66-35-121t-47-105-59-91-72-84L1405 0h-225l-168 172q-49-45-97-80T813 32 697-6 557-20Q452-20 369 6T228 84t-88 126-31 171z"/><glyph unicode="'" glyph-name="quotesingle" horiz-adv-x="463" d="M330 1462l-41-528H174l-41 528h197z"/><glyph unicode="(" glyph-name="parenleft" horiz-adv-x="616" d="M82 561q0 125 18 246t55 236 93 220 135 199h172q-140-193-212-424t-73-475q0-119 18-237t54-231 89-219 122-200H383q-78 90-134 193T155 84t-55 233-18 244z"/><glyph unicode=")" glyph-name="parenright" horiz-adv-x="616" d="M535 561q0-124-18-244T462 85t-94-216-135-193H63q69 94 122 200t89 219 54 231 18 237q0 244-72 475T61 1462h172q78-93 134-198t94-220 56-236 18-247z"/><glyph unicode="*" glyph-name="asterisk" horiz-adv-x="1128" d="M664 1556l-43-393 397 111 26-193-378-28 245-326-178-96-176 358-158-358-184 96 242 326-375 28 29 193 391-111-43 393h205z"/><glyph unicode="+" glyph-name="plus" horiz-adv-x="1128" d="M489 647H102v150h387v389h150V797h387V647H639V262H489v385z"/><glyph unicode="," glyph-name="comma" horiz-adv-x="512" d="M362 238l15-23q-14-54-33-115T301-23t-49-123-51-118H63q15 61 29 127T120-6t25 128 19 116h198z"/><glyph unicode="-" glyph-name="hyphen" horiz-adv-x="659" d="M82 465v168h496V465H82z"/><glyph unicode="." glyph-name="period" horiz-adv-x="549" d="M147 111q0 38 10 64t27 43 40 24 50 8q26 0 49-7t41-24 27-43 10-65q0-37-10-63T364 4t-40-25-50-8q-27 0-50 8T184 4t-27 43-10 64z"/><glyph unicode="/" glyph-name="slash" horiz-adv-x="764" d="M743 1462L199 0H20l545 1462h178z"/><glyph unicode="0" glyph-name="zero" horiz-adv-x="1128" d="M1032 733q0-177-25-317t-82-237T779 31 563-20q-118 0-205 51T213 179t-86 237-29 317q0 177 25 317t81 236 144 148 215 51q119 0 207-50t146-147 87-237 29-318zm-749 0q0-150 15-262t48-186 86-112 131-38q77 0 131 37t88 111 50 186 16 264q0 150-15 262t-50 186-89 111-131 37q-77 0-130-37t-87-111-48-186-15-262z"/><glyph unicode="1" glyph-name="one" horiz-adv-x="1128" d="M711 0H535v1005q0 49 2 97t3 93 3 79q-17-18-30-31t-26-25-29-25-36-32l-148-121-96 123 383 299h150V0z"/><glyph unicode="2" glyph-name="two" horiz-adv-x="1128" d="M1008 0H96v156l350 381q75 81 134 148t100 131 64 128 22 141q0 59-17 104t-48 76-75 48-96 16q-95 0-171-38t-146-99l-102 119q40 36 86 67t99 55 112 36 124 14q96 0 173-27t132-77 83-123 30-164q0-85-26-162t-73-151-111-150-140-156L319 174v-8h689V0z"/><glyph unicode="3" glyph-name="three" horiz-adv-x="1128" d="M961 1120q0-73-23-133t-64-104-100-72-129-41v-6q177-22 269-112t92-236q0-96-32-176t-99-138-167-90-239-32Q360-20 264-3T82 59v170q87-46 188-71t195-25q92 0 159 20t110 57 64 91 21 121q0 68-26 116t-76 80-119 47-160 15H305v151h133q81 0 144 20t105 57 65 88 22 112q0 52-18 93t-51 69-79 44-102 15q-107 0-188-33t-156-88l-92 125q38 31 84 58t102 47 117 33 133 12q108 0 189-27t137-75 83-115 28-146z"/><glyph unicode="4" glyph-name="four" horiz-adv-x="1128" d="M1087 328H874V0H698v328H23v159l663 983h188V494h213V328zM698 494v356q0 56 1 117t4 120 4 110 4 85h-9q-7-20-17-44t-23-49-26-48-24-39L201 494h497z"/><glyph unicode="5" glyph-name="five" horiz-adv-x="1128" d="M545 897q99 0 184-27t149-82 100-134 36-185q0-114-34-205T879 110 714 14 487-20q-51 0-100 5T292-1t-87 25-74 35v172q33-23 77-41t94-30 98-18 92-7q79 0 141 18t105 58 66 98 23 140q0 143-88 218t-256 76q-27 0-58-2t-63-7-60-8-50-9l-90 57 55 688h690v-166H375l-39-419q32 6 84 13t125 7z"/><glyph unicode="6" glyph-name="six" horiz-adv-x="1128" d="M113 625q0 105 10 209t37 199 73 178 117 142 170 95 232 35q19 0 42-1t46-3 45-6 39-9v-155q-35 12-79 18t-87 6q-90 0-158-21t-119-61-83-93-55-119-31-140-13-154h12q20 36 48 67t67 54 85 36 107 13q95 0 172-29t131-87 83-139 30-189q0-114-31-205t-89-154-140-98-184-34q-100 0-187 39T251 138 150 339t-37 286zm475-492q60 0 109 20t86 62 55 105 20 151q0 70-16 125t-50 95-82 60-116 21q-67 0-122-23t-95-61-60-86-22-96q0-67 18-133t55-120 92-86 128-34z"/><glyph unicode="7" glyph-name="seven" horiz-adv-x="1128" d="M281 0l563 1296H90v166h940v-145L475 0H281z"/><glyph unicode="8" glyph-name="eight" horiz-adv-x="1128" d="M565 1485q84 0 158-22t131-66 90-110 33-154q0-67-20-121t-55-97-83-78-104-63q58-31 113-69t99-85 70-107 27-132q0-92-33-166T897 88 752 8 565-20Q455-20 370 7T226 84t-89 124-31 165q0 75 22 135t61 108 90 85 110 65q-49 31-92 67t-74 82-50 99-19 121q0 87 33 152t91 110 131 66 156 22zM285 371q0-53 16-97t50-76 86-49 124-18q70 0 123 17t90 50 54 79 18 102q0 52-19 94t-56 78-88 68-114 63l-30 14q-126-60-190-137t-64-188zm278 962q-106 0-168-53t-63-154q0-57 17-98t49-73 74-57 95-50q48 22 90 48t74 59 50 75 18 96q0 101-63 154t-173 53z"/><glyph unicode="9" glyph-name="nine" horiz-adv-x="1128" d="M1028 838q0-105-10-209t-37-200-73-177-117-143-170-94-232-35q-19 0-42 1t-46 3-45 6-39 8v156q35-13 79-19t87-6q135 0 222 47t138 127 72 188 27 226h-13q-20-36-48-67t-66-54-86-36-107-13q-95 0-172 29t-131 87-83 139-30 189q0 114 31 205t89 155 140 98 185 34q101 0 188-39t151-119 101-201 37-286zm-475 491q-60 0-109-20t-86-62-55-105-20-151q0-70 16-125t50-95 82-60 116-21q68 0 123 23t94 61 60 86 22 96q0 67-18 133t-55 120-92 87-128 33z"/><glyph unicode=":" glyph-name="colon" horiz-adv-x="549" d="M147 111q0 38 10 64t27 43 40 24 50 8q26 0 49-7t41-24 27-43 10-65q0-37-10-63T364 4t-40-25-50-8q-27 0-50 8T184 4t-27 43-10 64zm0 876q0 39 10 65t27 43 40 24 50 7q26 0 49-7t41-23 27-43 10-66q0-37-10-63t-27-43-40-25-50-8q-27 0-50 8t-40 25-27 43-10 63z"/><glyph unicode=";" glyph-name="semicolon" horiz-adv-x="549" d="M362 238l15-23q-14-54-33-115T301-23t-49-123-51-118H63q15 61 29 127T120-6t25 128 19 116h198zM147 987q0 39 10 65t27 43 40 24 50 7q26 0 49-7t41-23 27-43 10-66q0-37-10-63t-27-43-40-25-50-8q-27 0-50 8t-40 25-27 43-10 63z"/><glyph unicode="&lt;" glyph-name="less" horiz-adv-x="1128" d="M1026 238L102 662v102l924 481v-160L291 721l735-322V238z"/><glyph unicode="=" glyph-name="equal" horiz-adv-x="1128" d="M102 852v149h924V852H102zm0-410v150h924V442H102z"/><glyph unicode="&gt;" glyph-name="greater" horiz-adv-x="1128" d="M102 399l736 322-736 364v160l924-481V662L102 238v161z"/><glyph unicode="?" glyph-name="question" horiz-adv-x="872" d="M281 414v37q0 57 7 103t27 86 53 78 83 81q48 41 82 74t55 68 32 74 11 93q0 48-15 87t-43 68-71 44-99 16q-83 0-158-26t-145-60l-63 145q81 42 175 71t191 30q93 0 167-25t127-74 80-117 28-157q0-67-13-119t-41-98-67-87-94-89q-52-45-85-78t-52-65-26-65-7-77v-18H281zm-48-303q0 38 10 64t27 43 40 24 50 8q26 0 49-7t41-24 27-43 10-65q0-37-10-63T450 4t-40-25-50-8q-27 0-50 8T270 4t-27 43-10 64z"/><glyph unicode="@" glyph-name="at" horiz-adv-x="1774" d="M1665 731q0-62-9-124t-28-119-47-105-67-85-86-56-107-21q-45 0-81 15t-63 40-42 57-23 68h-4q-18-37-45-70t-62-57-80-39-98-14q-77 0-136 28t-101 78-62 122-22 157q0 101 29 185t85 145 135 95 177 34q45 0 90-4t86-11 75-15 58-17l-23-416q-1-22-1-35t-1-22 0-12 0-7q0-53 10-87t28-54 38-27 45-8q46 0 81 30t58 83 36 122 12 148q0 142-43 252t-119 187-180 115-228 40q-169 0-298-55t-216-155-133-236-45-299q0-151 39-268t116-197T603-4t261-41q61 0 120 7t115 19 106 27 93 33v-141q-86-38-194-60t-238-22q-179 0-319 51T309 17 160 255t-51 320q0 188 59 350t168 282 265 187 349 68q156 0 287-50t226-145 149-230 53-306zM662 602q0-133 50-192t136-60q55 0 94 22t64 64 38 99 17 127l14 253q-28 8-66 14t-81 7q-74 0-124-29t-82-76-46-107-14-122z"/><glyph unicode="A" glyph-name="A" horiz-adv-x="1245" d="M1055 0L895 453H350L188 0H0l537 1468h170L1245 0h-190zM836 618l-148 424q-6 18-14 44t-18 56-18 62-17 64q-7-31-16-64t-18-63-17-56-15-43L410 618h426z"/><glyph unicode="B" glyph-name="B" horiz-adv-x="1272" d="M199 1462h399q128 0 225-19t163-63 99-114 33-174q0-62-19-116t-57-95-91-68-124-37v-10q69-12 129-34t106-62 71-100 26-146q0-100-32-178t-94-133-150-84T684 0H199v1462zm186-620h244q84 0 141 15t92 44 50 74 16 104q0 120-77 172t-243 52H385V842zm0-156V158h266q88 0 147 20t96 56 53 86 16 112q0 56-16 103t-54 80-100 52-154 19H385z"/><glyph unicode="C" glyph-name="C" horiz-adv-x="1235" d="M793 1319q-107 0-194-40t-148-117-95-185-34-246q0-141 29-250t89-185 147-114 206-39q89 0 169 17t158 41V39q-39-15-78-26T961-6t-91-10-108-4q-164 0-284 54T280 187 163 425t-38 308q0 166 43 304t128 237 210 154 287 55q108 0 206-22t177-64l-78-156q-63 32-137 55t-168 23z"/><glyph unicode="D" glyph-name="D" horiz-adv-x="1401" d="M1276 745q0-185-48-324t-139-233T866 47 565 0H199v1462h407q153 0 277-46t211-136 134-225 48-310zm-197-6q0 146-33 252t-96 176-155 102-209 34H385V160h162q264 0 398 146t134 433z"/><glyph unicode="E" glyph-name="E" horiz-adv-x="1081" d="M958 0H199v1462h759v-164H385V846h535V684H385V164h573V0z"/><glyph unicode="F" glyph-name="F" horiz-adv-x="1006" d="M385 0H199v1462h759v-164H385V782h535V618H385V0z"/><glyph unicode="G" glyph-name="G" horiz-adv-x="1413" d="M782 772h484V55q-55-18-111-32T1040 0 916-15t-140-5q-157 0-278 52T294 182 168 419t-43 314q0 172 47 311t139 236 224 150 305 53q111 0 213-22t190-64l-72-162q-36 17-77 32t-86 26-90 19-93 7q-122 0-216-40t-157-117-97-185-33-246q0-130 27-238t88-186 155-121 229-43q44 0 80 2t68 7 58 9 54 11v436H782v164z"/><glyph unicode="H" glyph-name="H" horiz-adv-x="1436" d="M1237 0h-186v682H385V0H199v1462h186V846h666v616h186V0z"/><glyph unicode="I" glyph-name="I" horiz-adv-x="694" d="M612 0H82v102l172 41v1176l-172 41v102h530v-102l-172-41V143l172-41V0z"/><glyph unicode="J" glyph-name="J" horiz-adv-x="555" d="M-29-389q-51 0-89 6t-66 18v160q34-9 73-14t84-6q37 0 74 9t68 35 50 69T184 0v1462h187V20q0-105-29-182t-82-127-126-75-163-25z"/><glyph unicode="K" glyph-name="K" horiz-adv-x="1186" d="M1186 0H975L524 698 385 584V0H199v1462h186V731l121 168 452 563h209L647 825 1186 0z"/><glyph unicode="L" glyph-name="L" horiz-adv-x="1006" d="M199 0v1462h186V166h573V0H199z"/><glyph unicode="M" glyph-name="M" horiz-adv-x="1782" d="M803 0L360 1280h-8q6-74 10-147 4-63 6-132t3-127V0H199v1462h276L887 270h6l414 1192h276V0h-186v887q0 52 2 119t5 128q4 71 7 144h-8L956 0H803z"/><glyph unicode="N" glyph-name="N" horiz-adv-x="1493" d="M1294 0h-215L360 1210h-8q6-77 10-153 4-65 6-136t3-128V0H199v1462h213l716-1204h7q-3 76-7 150-1 32-2 65t-3 67-2 65-1 57v800h174V0z"/><glyph unicode="O" glyph-name="O" horiz-adv-x="1520" d="M1393 733q0-169-40-308t-121-238-198-153-274-54q-163 0-282 54T280 187 163 425t-38 310q0 170 38 308t117 237 199 151 283 54q155 0 272-53t198-152 120-237 41-310zm-1071 0q0-137 26-246t79-186 136-117 197-41q114 0 196 40t136 117 79 186 25 247q0 138-25 247t-78 184-135 116-196 41q-114 0-197-40t-137-116-80-185-26-247z"/><glyph unicode="P" glyph-name="P" horiz-adv-x="1180" d="M1075 1034q0-91-27-175t-91-148-166-103-256-39H385V0H199v1462h362q134 0 231-28t160-83 93-135 30-182zM385 727h129q93 0 162 16t115 51 69 92 23 138q0 142-82 210t-256 69H385V727z"/><glyph unicode="Q" glyph-name="Q" horiz-adv-x="1518" d="M1393 733q0-131-24-244t-72-203-119-157-164-104q43-94 111-165t159-132l-121-142q-103 73-189 172T836-16q-17-2-37-3t-39-1q-163 0-282 54T280 187 163 425t-38 310q0 170 38 308t117 237 199 151 283 54q155 0 272-53t198-152 120-237 41-310zm-1071 0q0-137 26-246t79-186 136-117 197-41q114 0 196 40t136 117 79 186 25 247q0 138-25 247t-78 184-135 116-196 41q-114 0-197-40t-137-116-80-185-26-247z"/><glyph unicode="R" glyph-name="R" horiz-adv-x="1208" d="M385 604V0H199v1462h356q266 0 393-103t127-312q0-87-24-152t-65-111-93-78-107-51L1184 0H965L614 604H385zm0 158h164q90 0 153 17t103 52 59 86 19 121q0 72-20 122t-62 82-105 46-151 15H385V762z"/><glyph unicode="S" glyph-name="S" horiz-adv-x="1063" d="M969 391q0-97-34-173T836 88 680 8 473-20Q362-20 266-3T104 49v178q34-16 77-31t92-28 99-19 101-8q160 0 236 60t77 172q0 54-14 94t-51 73-98 65-154 69q-89 35-154 76t-108 94-63 118-21 150q0 88 32 157t90 116 138 73 178 25q119 0 214-22t169-58l-67-156q-65 29-147 50t-171 22q-122 0-189-56t-67-153q0-57 15-98t50-75 92-63 142-63q91-36 159-74t115-86 69-111 24-149z"/><glyph unicode="T" glyph-name="T" horiz-adv-x="1063" d="M625 0H438v1298H20v164h1022v-164H625V0z"/><glyph unicode="U" glyph-name="U" horiz-adv-x="1430" d="M1245 1464V516q0-114-33-212t-99-170T946 21 709-20q-128 0-226 38T319 128 218 298t-34 222v942h187V510q0-175 86-271t262-96q89 0 153 27t105 76 61 117 21 149v952h186z"/><glyph unicode="V" glyph-name="V" horiz-adv-x="1163" d="M965 1462h198L674 0H487L0 1462h197l295-927q29-91 50-175t38-159q15 74 38 158t54 182l293 921z"/><glyph unicode="W" glyph-name="W" horiz-adv-x="1810" d="M809 1462h197l229-856q15-56 29-112t27-108 22-100 16-85q4 38 10 83t14 94 17 101 21 101l200 882h199L1423 0h-188L981 938q-14 51-27 105t-24 101q-12 55-23 107-11-51-22-106-10-47-22-103t-27-110L594 0H406L20 1462h197l223-889q12-46 22-95t18-99 16-94 12-84q5 37 12 86t18 103 21 109 25 105l225 858z"/><glyph unicode="X" glyph-name="X" horiz-adv-x="1120" d="M1120 0H909L555 635 188 0H0l453 764-422 698h198l332-559 334 559h190L664 770 1120 0z"/><glyph unicode="Y" glyph-name="Y" horiz-adv-x="1079" d="M539 723l340 739h200L633 569V0H446v559L0 1462h203l336-739z"/><glyph unicode="Z" glyph-name="Z" horiz-adv-x="1104" d="M1022 0H82v145l711 1151H102v166h899v-145L291 166h731V0z"/><glyph unicode="[" glyph-name="bracketleft" horiz-adv-x="621" d="M569-324H164v1786h405v-149H346V-174h223v-150z"/><glyph unicode="\" glyph-name="backslash" horiz-adv-x="764" d="M201 1462L745 0H567L23 1462h178z"/><glyph unicode="]" glyph-name="bracketright" horiz-adv-x="621" d="M51-174h223v1487H51v149h406V-324H51v150z"/><glyph unicode="^" glyph-name="asciicircum" horiz-adv-x="1090" d="M41 549l459 924h102l447-924H888l-337 735-349-735H41z"/><glyph unicode="_" glyph-name="underscore" horiz-adv-x="842" d="M846-324H-4v140h850v-140z"/><glyph unicode="`" glyph-name="grave" horiz-adv-x="1182" d="M786 1241H666q-35 28-76 69t-79 86-70 84-48 68v21h219q16-34 37-74t45-81 47-79 45-67v-27z"/><glyph unicode="a" glyph-name="a" horiz-adv-x="1087" d="M793 0l-37 152h-8q-33-45-66-77t-72-54-87-31-111-10q-69 0-127 19T185 59t-67 102-24 146q0 164 115 252t352 96l184 7v69q0 67-14 112t-42 72-68 40-93 12q-83 0-154-24t-138-58l-64 137q74 40 165 68t191 28q102 0 176-20t123-65 73-114 24-167V0H793zM459 127q61 0 113 19t90 57 59 97 22 138v99l-143-7q-90-4-151-20t-97-44-53-69-16-92q0-92 48-135t128-43z"/><glyph unicode="b" glyph-name="b" horiz-adv-x="1200" d="M670 1118q94 0 171-36t131-107 85-178 30-246q0-141-30-247t-84-179T841 17 670-20q-59 0-107 13t-86 34-68 51-53 61h-12L307 0H174v1556h182v-376q0-35-1-74t-3-74q-2-40-4-78h8q23 35 52 65t67 52 87 34 108 13zm-35-151q-80 0-133-25t-86-78-46-130-14-183q0-101 13-179t46-132 87-81 135-28q135 0 198 109t64 313q0 208-63 311T635 967z"/><glyph unicode="c" glyph-name="c" horiz-adv-x="948" d="M594-20q-101 0-189 31T252 111 150 286t-37 257q0 157 38 266t104 178 156 100 191 31q78 0 152-17t125-42l-54-154q-23 10-51 19t-58 17-59 12-55 5q-157 0-229-100t-72-313q0-211 72-308t221-98q81 0 146 18t120 44V39Q806 10 745-5T594-20z"/><glyph unicode="d" glyph-name="d" horiz-adv-x="1200" d="M852 147h-8q-22-34-51-64t-68-54-87-36-108-13q-93 0-170 36T228 123t-85 178-30 246q0 141 30 247t85 179 132 108 170 37q59 0 107-13t86-35 69-51 52-61h12q-3 34-6 65-2 26-4 53t-2 44v436h182V0H879l-27 147zm-287-16q76 0 128 23t85 70 48 117 18 165v41q0 101-13 179t-46 132-87 81-135 28q-135 0-198-109t-64-313q0-209 63-311t201-103z"/><glyph unicode="e" glyph-name="e" horiz-adv-x="1096" d="M608-20q-110 0-201 37T251 125 149 301t-36 240q0 136 33 243t93 181 143 114 185 39q99 0 178-35t134-100 84-155 30-201V514H301q5-193 81-284t228-91q51 0 94 5t84 14 79 24 77 33V53q-40-19-78-33T787-3t-84-13-95-4zm-45 987q-114 0-180-78t-78-227h492q0 68-13 124t-42 97-73 62-106 22z"/><glyph unicode="f" glyph-name="f" horiz-adv-x="674" d="M651 961H406V0H223v961H29v75l194 68v96q0 107 22 177t65 113 105 59 140 18q59 0 108-11t89-26l-47-141q-31 11-67 19t-77 9q-40 0-69-9t-48-34-28-65-10-107v-104h245V961z"/><glyph unicode="g" glyph-name="g" horiz-adv-x="1061" d="M1020 1098V985l-197-27q28-35 47-89t19-124q0-76-23-140t-71-112-118-73-163-27h-44q-22 0-36 4-17-10-33-22t-30-29-22-36-9-44q0-27 12-43t32-26 49-12 59-3h176q93 0 157-23t104-64 59-94 18-116q0-88-32-158T874-391t-169-75-242-26q-107 0-187 21t-133 61-79 96-27 128q0 60 19 105t53 79 76 54 91 32q-42 19-69 60t-27 94q0 61 32 105t101 87q-43 18-78 49t-60 72-38 89-14 99q0 89 25 159t74 119 122 75 170 26q37 0 76-5t67-15h363zM209-180q0-37 13-69t42-55 78-36 121-14q186 0 278 57t93 166q0 46-12 75t-39 45-73 23-110 6H424q-35 0-73-8t-69-30-52-60-21-100zm92 925q0-115 54-171t153-56q100 0 151 55t52 175q0 123-52 181t-153 58q-99 0-152-60t-53-182z"/><glyph unicode="h" glyph-name="h" horiz-adv-x="1206" d="M860 0v707q0 130-52 195t-165 65q-81 0-136-26t-88-77-48-125-15-170V0H174v1556h182v-462l-8-144h10q25 43 59 74t76 53 87 31 94 10q183 0 275-95t93-306V0H860z"/><glyph unicode="i" glyph-name="i" horiz-adv-x="530" d="M356 0H174v1098h182V0zM160 1395q0 60 30 87t76 27q22 0 41-6t34-21 23-35 9-52q0-58-31-86t-76-29q-45 0-75 28t-31 87z"/><glyph unicode="j" glyph-name="j" horiz-adv-x="530" d="M66-492q-48 0-79 7t-55 18v148q26-10 53-15t62-6q27 0 50 7t40 27 27 52 10 84v1268h182V-158q0-77-17-138t-53-105-90-67-130-24zm94 1887q0 60 30 87t76 27q22 0 41-6t34-21 23-35 9-52q0-58-31-86t-76-29q-45 0-75 28t-31 87z"/><glyph unicode="k" glyph-name="k" horiz-adv-x="1016" d="M342 567l135 170 293 361h211L580 623 1008 0H799L463 504l-109-82V0H174v1556h180V842l-16-275h4z"/><glyph unicode="l" glyph-name="l" horiz-adv-x="530" d="M356 0H174v1556h182V0z"/><glyph unicode="m" glyph-name="m" horiz-adv-x="1835" d="M1489 0v707q0 130-50 195t-155 65q-73 0-124-23t-83-69-48-113-15-156V0H831v707q0 130-49 195t-155 65q-77 0-129-26t-83-77-45-125-14-170V0H174v1098h148l26-148h10q24 43 57 74t72 53 84 31 91 10q120 0 199-44t118-138h8q26 47 62 81t80 56 92 34 98 11q175 0 263-95t89-306V0h-182z"/><glyph unicode="n" glyph-name="n" horiz-adv-x="1206" d="M860 0v707q0 130-52 195t-165 65q-81 0-136-26t-88-77-48-125-15-170V0H174v1098h148l26-148h10q25 43 59 74t76 53 87 31 94 10q183 0 275-95t93-306V0H860z"/><glyph unicode="o" glyph-name="o" horiz-adv-x="1182" d="M1069 551q0-137-33-243t-96-179T788 18 588-20q-103 0-190 38T248 128t-99 179-36 244q0 136 33 241t96 178 151 110 201 38q103 0 190-37t150-110 99-178 36-242zm-768 0q0-209 68-314t223-106q154 0 221 105t68 315q0 209-68 312T590 967q-154 0-221-103t-68-313z"/><glyph unicode="p" glyph-name="p" horiz-adv-x="1200" d="M670-20q-59 0-107 13t-86 34-68 51-53 61h-12q3-34 6-65 2-26 4-53t2-44v-469H174v1590h148l26-148h8q23 35 52 65t67 53 87 36 108 14q94 0 171-36t131-107 85-178 30-246q0-141-30-247t-84-179T841 17 670-20zm-35 987q-76 0-128-23t-85-70-48-117-18-165v-41q0-101 13-179t46-132 87-81 135-28q135 0 198 109t64 313q0 208-63 311T635 967z"/><glyph unicode="q" glyph-name="q" horiz-adv-x="1200" d="M565 131q76 0 128 23t85 70 48 117 18 165v41q0 101-13 179t-46 132-87 81-135 28q-135 0-198-109t-64-313q0-209 63-311t201-103zM530-20q-93 0-170 36T228 123t-85 178-30 246q0 141 30 247t85 179 132 108 170 37q59 0 107-13t86-36 68-53 53-66h8l27 148h147V-492H844v469q0 19 2 48t4 56q3 32 6 66h-12q-22-34-51-64t-68-54-87-36-108-13z"/><glyph unicode="r" glyph-name="r" horiz-adv-x="817" d="M649 1118q29 0 65-2t62-8l-24-168q-28 5-57 8t-56 4q-63 0-115-25t-89-73-58-114-21-148V0H174v1098h148l22-201h8q25 43 53 83t64 70 80 49 100 19z"/><glyph unicode="s" glyph-name="s" horiz-adv-x="924" d="M831 301q0-80-29-140T719 61 587 0 414-20Q305-20 227-3T90 49v166q31-16 69-31t80-28 86-19 89-8q65 0 110 11t74 31 42 50 13 66q0 31-10 56t-36 49-73 50-118 56q-72 31-129 61t-98 67-61 85-22 116q0 70 27 124t78 92 120 56 156 19q97 0 177-21t153-55l-63-147q-65 29-133 50t-140 22q-102 0-151-33t-49-96q0-35 11-61t40-49 75-46 117-53q72-30 128-60t97-67 61-86 21-115z"/><glyph unicode="t" glyph-name="t" horiz-adv-x="694" d="M506 129q18 0 40 2t44 5 38 7 27 7V12q-13-6-33-12t-44-10-50-7-51-3q-62 0-115 16t-91 55-61 105-22 168v637H33v81l155 78 78 230h105v-252h276V961H371V324q0-97 31-146t104-49z"/><glyph unicode="u" glyph-name="u" horiz-adv-x="1206" d="M885 0l-27 147h-10q-25-43-59-74t-76-52-87-31-94-10q-91 0-160 23T257 75t-69 125-24 181v717h182V391q0-130 53-195t164-65q81 0 136 26t88 76 48 125 15 170v570h182V0H885z"/><glyph unicode="v" glyph-name="v" horiz-adv-x="981" d="M375 0L0 1098h188l199-611q11-33 26-85t30-106 27-102 17-73h7q5 25 17 73t27 102 30 106 26 85l199 611h188L606 0H375z"/><glyph unicode="w" glyph-name="w" horiz-adv-x="1528" d="M1008 0L840 616q-4 18-10 40t-12 48-12 51-13 51q-14 58-29 120h-6q-14-63-27-121-11-50-23-103t-24-90L512 0H301L20 1098h191l131-584q10-45 20-97t19-104 16-97 11-75h6q5 26 13 69t19 92 22 96 21 81l179 619h196l172-619q9-34 20-80t23-93 20-92 13-73h6q3 26 9 69t16 96 19 106 22 102l137 584h186L1223 0h-215z"/><glyph unicode="x" glyph-name="x" horiz-adv-x="1024" d="M408 563L55 1098h207l250-410 250 410h207L614 563 987 0H780L512 436 242 0H35l373 563z"/><glyph unicode="y" glyph-name="y" horiz-adv-x="1001" d="M10 1098h189l215-613q14-40 28-84t27-88 22-85 13-76h6q5 25 16 68t24 91 28 96 26 80l199 611h188L557-143q-28-81-60-145t-76-110-101-69-138-25q-52 0-90 5t-65 12v145q21-5 53-8t67-4q48 0 83 11t61 34 44 54 34 73l57 160L10 1098z"/><glyph unicode="z" glyph-name="z" horiz-adv-x="903" d="M821 0H82v125l536 836H115v137h688V952L279 137h542V0z"/><glyph unicode="{" glyph-name="braceleft" horiz-adv-x="725" d="M500-16q0-48 12-78t34-48 55-24 73-8v-150q-77 1-142 17t-113 52-75 91-27 133v334q0 103-65 146T61 492v155q125 0 190 43t66 146v333q0 78 27 133t74 90 113 52 143 18v-149q-40-1-72-7t-55-24-35-48-12-79V823q0-105-59-166t-175-82v-12q115-20 174-81t60-167V-16z"/><glyph unicode="|" glyph-name="bar" horiz-adv-x="1128" d="M489 1556h150V-492H489v2048z"/><glyph unicode="}" glyph-name="braceright" horiz-adv-x="725" d="M225 315q0 106 59 167t175 81v12q-115 20-174 81t-60 167v332q0 48-12 78t-34 48-55 24-73 8v149q77-1 142-17t113-52 75-91 27-133V836q0-52 16-88t49-58 81-33 110-10V492q-125 0-190-43t-66-146V-31q0-78-27-133t-74-90-113-52-143-18v150q40 1 72 7t55 24 35 48 12 79v331z"/><glyph unicode="~" glyph-name="asciitilde" horiz-adv-x="1128" d="M530 651q-37 16-64 27t-50 17-43 9-43 3q-28 0-58-9t-59-26-58-39-53-47v162q100 108 248 108 29 0 54-2t52-9 61-19 81-33q37-16 64-27t51-17 44-9 42-3q28 0 58 9t59 26 58 39 52 47V696q-99-108-248-108-29 0-54 2t-52 9-61 19-81 33z"/><glyph glyph-name="nbspace" horiz-adv-x="532"/><glyph unicode="¡" glyph-name="exclamdown" horiz-adv-x="551" d="M213 676h121l51-1049H162l51 1049zm188 303q0-38-9-64t-27-43-41-24-50-8q-26 0-49 7t-40 24-28 43-10 65q0 37 10 63t27 43 41 25 49 8q27 0 50-8t40-25 27-43 10-63z"/><glyph unicode="¢" glyph-name="cent" horiz-adv-x="1128" d="M886 212l-55-15-131-17V-20H563v206q-87 13-156 50T289 340t-75 166-26 237q0 141 26 242t75 170 118 105 156 51v172h137v-164q72-3 140-19t114-40l-53-154q-23 10-51 19t-58 17-59 12-55 5q-157 0-229-101t-72-313q0-210 72-307t221-98q81 0 146 18t120 43V240q-50-28-105-43z"/><glyph unicode="£" glyph-name="sterling" horiz-adv-x="1128" d="M666 1481q106 0 193-22t153-58l-66-144q-56 29-126 50t-146 22q-48 0-89-13t-71-43-46-77-17-113V788h376V651H451V440q0-62-11-106t-31-77-45-53-53-38h748V0H68v154q44 11 80 31t63 55 42 82 15 116v213H70v137h198v324q0 87 29 155t82 116 126 73 161 25z"/><glyph unicode="¤" glyph-name="currency" horiz-adv-x="1128" d="M186 723q0 59 17 112t49 101l-129 129 98 98 127-129q47 32 101 50t114 18q60 0 113-18t100-50l129 129 99-96-130-129q31-46 49-100t19-115q0-60-17-115t-51-100l127-127-96-96-129 127q-46-31-99-48t-114-18q-60 0-115 18t-100 50L221 287l-96 96 127 127q-31 45-48 99t-18 114zm138 0q0-50 18-93t51-76 76-52 94-19q51 0 95 19t78 51 52 76 19 94q0 51-19 95t-52 78-77 52-96 19q-50 0-93-19t-76-52-51-77-19-96z"/><glyph unicode="¥" glyph-name="yen" horiz-adv-x="1128" d="M563 723l346 739h191L715 694h239V557H653V399h301V262H653V0H475v262H174v137h301v158H174v137h234L29 1462h192l342-739z"/><glyph unicode="¦" glyph-name="brokenbar" horiz-adv-x="1128" d="M489 1556h150V776H489v780zm0-1267h150v-781H489v781z"/><glyph unicode="§" glyph-name="section" horiz-adv-x="995" d="M137 809q0 51 13 92t35 74 52 54 60 38q-75 38-117 95t-43 141q0 61 27 110t78 83 120 52 156 19q97 0 175-20t151-52l-56-139q-65 28-135 47t-141 20q-99 0-150-29t-51-87q0-27 12-50t40-45 76-45 118-53q72-28 128-60t96-72 60-87 21-111q0-52-12-94t-32-77-47-58-54-41q69-38 107-92t38-133q0-71-29-126t-84-94-131-59-174-20Q336-10 258 6T121 55v158q31-15 69-30t80-26 86-19 88-7q69 0 115 12t74 31 39 45 12 53q0 29-8 51t-34 45-73 47-123 56q-73 31-130 62t-98 70-60 89-21 117zm154 22q0-37 14-68t45-61 82-56 123-58l35-15q20 13 40 31t37 41 27 51 11 62q0 38-13 70t-45 61-87 58-136 59q-25-8-48-23t-43-38-30-52-12-62z"/><glyph unicode="¨" glyph-name="dieresis" horiz-adv-x="1182" d="M307 1395q0 54 28 78t68 24q39 0 68-24t29-78q0-53-29-78t-68-25q-40 0-68 25t-28 78zm375 0q0 54 28 78t68 24q19 0 36-6t31-18 21-32 8-46q0-53-29-78t-67-25q-40 0-68 25t-28 78z"/><glyph unicode="©" glyph-name="copyright" horiz-adv-x="1704" d="M891 1053q-61 0-108-22t-79-63-48-102-17-135q0-78 14-138t45-101 78-62 115-22q23 0 50 3t55 10 57 14 53 18V322q-24-11-48-20t-51-16-57-10-65-4q-102 0-178 33t-126 94-76 146-26 188q0 101 27 184t79 144 129 93 177 34q63 0 129-16t125-46l-62-127q-52 26-100 40t-92 14zM100 731q0 104 27 200t75 179 118 153 152 117 180 76 200 27q104 0 200-27t179-75 153-118 117-152 76-180 27-200q0-104-27-200t-75-179-118-152-152-118-180-75-200-27Q748-20 652 6T473 82 320 199 203 351t-76 180-27 200zm109 0q0-133 50-250t138-204 205-138 250-51q133 0 250 50t204 138 138 205 51 250q0 133-50 250t-138 204-205 138-250 51q-133 0-250-50t-204-138-138-205-51-250z"/><glyph unicode="ª" glyph-name="ordfeminine" horiz-adv-x="678" d="M487 797l-28 82q-18-22-37-39t-43-30-52-19-63-7q-43 0-79 13t-62 38-40 64-15 90q0 102 70 156t214 59l99 4v31q0 72-30 100t-87 29q-48 0-93-14t-87-37l-48 100q51 26 109 44t119 18q125 0 184-53t60-175V797h-91zm-110 313q-51-3-85-12t-54-24-30-36-9-51q0-51 25-73t67-23q34 0 63 10t50 33 34 54 13 77v49l-74-4z"/><glyph unicode="«" glyph-name="guillemotleft" horiz-adv-x="997" d="M82 553l309 414 117-78-238-348 238-348-117-78L82 526v27zm407 0l310 414 116-78-237-348 237-348-116-78-310 411v27z"/><glyph unicode="¬" glyph-name="logicalnot" horiz-adv-x="1128" d="M1026 797V262H877v385H102v150h924z"/><glyph unicode="­" glyph-name="uni00AD" horiz-adv-x="659" d="M82 465v168h496V465H82z"/><glyph unicode="®" glyph-name="registered" horiz-adv-x="1704" d="M743 768h72q91 0 130 36t40 105q0 74-41 103t-131 30h-70V768zm402 145q0-48-13-85t-36-66-51-49-60-33q67-110 120-197 23-37 44-72t37-64 27-45l10-17h-179L838 637h-95V285H586v893h233q168 0 247-65t79-200zM100 731q0 104 27 200t75 179 118 153 152 117 180 76 200 27q104 0 200-27t179-75 153-118 117-152 76-180 27-200q0-104-27-200t-75-179-118-152-152-118-180-75-200-27Q748-20 652 6T473 82 320 199 203 351t-76 180-27 200zm109 0q0-133 50-250t138-204 205-138 250-51q133 0 250 50t204 138 138 205 51 250q0 133-50 250t-138 204-205 138-250 51q-133 0-250-50t-204-138-138-205-51-250z"/><glyph unicode="¯" glyph-name="overscore" horiz-adv-x="1024" d="M1030 1556H-6v140h1036v-140z"/><glyph unicode="°" glyph-name="degree" horiz-adv-x="877" d="M123 1167q0 65 25 122t67 101 100 68 123 25q65 0 122-25t101-68 68-100 25-123q0-65-25-122t-68-99-100-67-123-25q-65 0-122 24t-100 67-68 100-25 122zm123 0q0-39 15-73t41-61 61-41 75-15q40 0 75 15t61 41 42 60 15 74q0 40-15 75t-41 62-62 42-75 16q-40 0-75-15t-61-42-41-62-15-76z"/><glyph unicode="±" glyph-name="plusminus" horiz-adv-x="1128" d="M489 647H102v150h387v389h150V797h387V647H639V262H489v385zM102 0v150h924V0H102z"/><glyph unicode="²" glyph-name="twosuperior" horiz-adv-x="678" d="M621 586H49v112l209 228q57 62 93 104t56 76 27 63 8 64q0 65-33 97t-87 32q-51 0-97-25t-92-63l-78 94q54 48 120 80t149 33q60 0 108-16t83-48 52-77 19-103q0-50-14-93t-42-85-66-88-91-101L225 713h396V586z"/><glyph unicode="³" glyph-name="threesuperior" horiz-adv-x="678" d="M590 1255q0-78-40-131t-110-77q88-23 132-76t44-131q0-60-20-110t-61-85-105-56-149-20q-70 0-131 12T31 625v133q63-34 129-53t119-19q98 0 142 41t44 115q0 74-53 107t-150 34h-98v113h98q92 0 134 39t42 104q0 32-10 55t-27 39-41 22-51 7q-59 0-107-20t-100-58l-69 96q29 23 59 41t65 32 72 20 82 8q69 0 121-17t88-47 52-71 18-91z"/><glyph unicode="´" glyph-name="acute" horiz-adv-x="1182" d="M393 1268q22 29 45 67t47 78 45 81 37 75h219v-21q-16-27-47-67t-70-85-79-85-76-70H393v27z"/><glyph unicode="µ" glyph-name="mu" horiz-adv-x="1217" d="M356 391q0-130 53-195t164-65q82 0 137 26t88 76 48 125 14 170v570h182V0H895l-27 147h-10Q810 64 738 22T563-20q-72 0-125 23t-88 65q1-38 3-78 2-35 2-77t1-85v-320H174v1590h182V391z"/><glyph unicode="¶" glyph-name="paragraph" horiz-adv-x="1341" d="M1126-260h-120v1657H799V-260H678v819q-61-18-146-18-95 0-172 25t-132 85-85 155-30 236q0 147 32 245t92 159 143 85 183 25h563V-260z"/><glyph unicode="·" glyph-name="middot" horiz-adv-x="549" d="M147 723q0 38 10 64t27 43 40 24 50 8q26 0 49-7t41-24 27-43 10-65q0-37-10-63t-27-43-40-25-50-8q-27 0-50 8t-40 25-27 43-10 63z"/><glyph unicode="¸" glyph-name="cedilla" horiz-adv-x="420" d="M408-287q0-97-70-151t-221-54q-22 0-44 3t-38 6v108q15-3 39-4t41-2q71 0 111 21t40 71q0 24-13 41t-36 31-54 22-69 19L184 0h121l-57-115q34-8 63-21t50-33 34-50 13-68z"/><glyph unicode="¹" glyph-name="onesuperior" horiz-adv-x="678" d="M307 1462h135V586H297v571q0 30 2 60t3 58 3 50q-14-17-33-37t-41-37l-94-73-74 96 244 188z"/><glyph unicode="º" glyph-name="ordmasculine" horiz-adv-x="717" d="M651 1133q0-83-20-148t-59-109-93-68-123-24q-63 0-116 23t-92 68-60 110-22 148q0 83 20 147t59 109 92 67 123 23q62 0 115-23t93-67 61-108 22-148zm-454 0q0-119 37-179t124-61q85 0 122 60t38 180q0 120-37 177t-123 58q-86 0-123-57t-38-178z"/><glyph unicode="»" glyph-name="guillemotright" horiz-adv-x="997" d="M918 526L608 115l-116 78 237 348-237 348 116 78 310-414v-27zm-408 0L201 115 84 193l238 348L84 889l117 78 309-414v-27z"/><glyph unicode="¼" glyph-name="onequarter" horiz-adv-x="1509" d="M307 1462h135V586H297v571q0 30 2 60t3 58 3 50q-14-17-33-37t-41-37l-94-73-74 96 244 188zm895 0L391 0H234l811 1462h157zm217-1269h-125V1h-143v192H776v111l377 579h141V320h125V193zm-268 127v195q0 42 1 91t5 99q-5-11-15-29t-21-40-23-41-21-35L922 320h229z"/><glyph unicode="½" glyph-name="onehalf" horiz-adv-x="1509" d="M544 1462h135V586H534v571q0 30 2 60t3 58 3 50q-14-17-33-37t-41-37l-94-73-74 96 244 188zm637 0L370 0H213l811 1462h157zM1440 1H868v112l209 228q57 62 93 104t56 76 27 63 8 64q0 65-33 97t-87 32q-51 0-97-25t-92-63l-78 94q54 48 120 80t149 33q60 0 108-16t83-48 52-77 19-103q0-50-14-93t-42-85-66-88-91-101l-148-157h396V1z"/><glyph unicode="¾" glyph-name="threequarters" horiz-adv-x="1509" d="M590 1255q0-78-40-131t-110-77q88-23 132-76t44-131q0-60-20-110t-61-85-105-56-149-20q-70 0-131 12T31 625v133q63-34 129-53t119-19q98 0 142 41t44 115q0 74-53 107t-150 34h-98v113h98q92 0 134 39t42 104q0 32-10 55t-27 39-41 22-51 7q-59 0-107-20t-100-58l-69 96q29 23 59 41t65 32 72 20 82 8q69 0 121-17t88-47 52-71 18-91zm706 207L485 0H328l811 1462h157zm190-1269h-125V1h-143v192H843v111l377 579h141V320h125V193zm-268 127v195q0 42 1 91t5 99q-5-11-15-29t-21-40-23-41-21-35L989 320h229z"/><glyph unicode="¿" glyph-name="questiondown" horiz-adv-x="872" d="M592 676v-37q0-58-8-103t-27-86-52-79-83-80q-48-41-82-74t-55-68-32-74-11-93q0-48 15-87t43-68 71-44 98-16q84 0 159 25t144 61l64-146q-82-42-176-71t-191-29q-93 0-167 25t-126 74-80 117T68-20q0 68 13 120t40 97 67 87 95 89q52 45 85 78t52 65 26 64 7 77v19h139zm47 303q0-38-9-64t-27-43-41-24-50-8q-26 0-49 7t-40 24-28 43-10 65q0 37 10 63t27 43 41 25 49 8q27 0 50-8t40-25 27-43 10-63z"/><glyph unicode="À" glyph-name="Agrave" horiz-adv-x="1245" d="M1055 0L895 453H350L188 0H0l537 1468h170L1245 0h-190zM836 618l-148 424q-6 18-14 44t-18 56-18 62-17 64q-7-31-16-64t-18-63-17-56-15-43L410 618h426zm-117 961H599q-35 28-76 69t-79 86-70 84-48 68v21h219q16-34 37-74t45-81 47-79 45-67v-27z"/><glyph unicode="Á" glyph-name="Aacute" horiz-adv-x="1245" d="M1055 0L895 453H350L188 0H0l537 1468h170L1245 0h-190zM836 618l-148 424q-6 18-14 44t-18 56-18 62-17 64q-7-31-16-64t-18-63-17-56-15-43L410 618h426zm-302 988q22 29 45 67t47 78 45 81 37 75h219v-21q-16-27-47-67t-70-85-79-85-76-70H534v27z"/><glyph unicode="Â" glyph-name="Acircumflex" horiz-adv-x="1245" d="M1055 0L895 453H350L188 0H0l537 1468h170L1245 0h-190zM836 618l-148 424q-6 18-14 44t-18 56-18 62-17 64q-7-31-16-64t-18-63-17-56-15-43L410 618h426zm117 961H832q-51 34-105 82t-106 104q-54-55-107-103t-104-83H289v27q26 29 60 67t67 78 63 81 46 75h192q16-34 45-74t63-81 68-79 60-67v-27z"/><glyph unicode="Ã" glyph-name="Atilde" horiz-adv-x="1245" d="M1055 0L895 453H350L188 0H0l537 1468h170L1245 0h-190zM836 618l-148 424q-6 18-14 44t-18 56-18 62-17 64q-7-31-16-64t-18-63-17-56-15-43L410 618h426zm-64 963q-40 0-79 17t-78 39-73 39-67 18q-45 0-69-26t-38-89H264q5 60 21 109t43 83 64 53 83 19q42 0 82-17t79-39 72-38 64-18q45 0 68 26t38 88h105q-5-60-21-108t-43-83-64-54-83-19z"/><glyph unicode="Ä" glyph-name="Adieresis" horiz-adv-x="1245" d="M1055 0L895 453H350L188 0H0l537 1468h170L1245 0h-190zM836 618l-148 424q-6 18-14 44t-18 56-18 62-17 64q-7-31-16-64t-18-63-17-56-15-43L410 618h426zM340 1733q0 54 28 78t68 24q39 0 68-24t29-78q0-53-29-78t-68-25q-40 0-68 25t-28 78zm375 0q0 54 28 78t68 24q19 0 36-6t31-18 21-32 8-46q0-53-29-78t-67-25q-40 0-68 25t-28 78z"/><glyph unicode="Å" glyph-name="Aring" horiz-adv-x="1245" d="M1055 0L895 453H350L188 0H0l537 1468h170L1245 0h-190zM836 618l-148 424q-6 18-14 44t-18 56-18 62-17 64q-7-31-16-64t-18-63-17-56-15-43L410 618h426zm12 965q0-51-17-91t-48-69-73-42-91-15q-50 0-91 14t-70 43-46 67-16 91q0 51 16 90t45 68 71 42 91 15q48 0 90-14t73-42 48-67 18-90zm-117-2q0 53-31 83t-81 30q-50 0-81-30t-32-83q0-53 28-83t85-30q49 0 80 30t32 83z"/><glyph unicode="Æ" glyph-name="AE" horiz-adv-x="1745" d="M1622 0H862v453H387L184 0H-2l655 1462h969v-164h-573V846h534V684h-534V164h573V0zM459 618h403v680H754L459 618z"/><glyph unicode="Ç" glyph-name="Ccedilla" horiz-adv-x="1235" d="M793 1319q-107 0-194-40t-148-117-95-185-34-246q0-141 29-250t89-185 147-114 206-39q89 0 169 17t158 41V39q-39-15-78-26T961-6t-91-10-108-4q-164 0-284 54T280 187 163 425t-38 308q0 166 43 304t128 237 210 154 287 55q108 0 206-22t177-64l-78-156q-63 32-137 55t-168 23zM916-287q0-97-70-151t-221-54q-22 0-44 3t-38 6v108q15-3 39-4t41-2q71 0 111 21t40 71q0 24-13 41t-36 31-54 22-69 19L692 0h121l-57-115q34-8 63-21t50-33 34-50 13-68z"/><glyph unicode="È" glyph-name="Egrave" horiz-adv-x="1081" d="M958 0H199v1462h759v-164H385V846h535V684H385V164h573V0zM713 1579H593q-35 28-76 69t-79 86-70 84-48 68v21h219q16-34 37-74t45-81 47-79 45-67v-27z"/><glyph unicode="É" glyph-name="Eacute" horiz-adv-x="1081" d="M958 0H199v1462h759v-164H385V846h535V684H385V164h573V0zM456 1606q22 29 45 67t47 78 45 81 37 75h219v-21q-16-27-47-67t-70-85-79-85-76-70H456v27z"/><glyph unicode="Ê" glyph-name="Ecircumflex" horiz-adv-x="1081" d="M958 0H199v1462h759v-164H385V846h535V684H385V164h573V0zm-51 1579H786q-51 34-105 82t-106 104q-54-55-107-103t-104-83H243v27q26 29 60 67t67 78 63 81 46 75h192q16-34 45-74t63-81 68-79 60-67v-27z"/><glyph unicode="Ë" glyph-name="Edieresis" horiz-adv-x="1081" d="M958 0H199v1462h759v-164H385V846h535V684H385V164h573V0zM296 1733q0 54 28 78t68 24q39 0 68-24t29-78q0-53-29-78t-68-25q-40 0-68 25t-28 78zm375 0q0 54 28 78t68 24q19 0 36-6t31-18 21-32 8-46q0-53-29-78t-67-25q-40 0-68 25t-28 78z"/><glyph unicode="Ì" glyph-name="Igrave" horiz-adv-x="694" d="M612 0H82v102l172 41v1176l-172 41v102h530v-102l-172-41V143l172-41V0zM455 1579H335q-35 28-76 69t-79 86-70 84-48 68v21h219q16-34 37-74t45-81 47-79 45-67v-27z"/><glyph unicode="Í" glyph-name="Iacute" horiz-adv-x="694" d="M612 0H82v102l172 41v1176l-172 41v102h530v-102l-172-41V143l172-41V0zM257 1606q22 29 45 67t47 78 45 81 37 75h219v-21q-16-27-47-67t-70-85-79-85-76-70H257v27z"/><glyph unicode="Î" glyph-name="Icircumflex" horiz-adv-x="694" d="M612 0H82v102l172 41v1176l-172 41v102h530v-102l-172-41V143l172-41V0zm69 1579H560q-51 34-105 82t-106 104q-54-55-107-103t-104-83H17v27q26 29 60 67t67 78 63 81 46 75h192q16-34 45-74t63-81 68-79 60-67v-27z"/><glyph unicode="Ï" glyph-name="Idieresis" horiz-adv-x="694" d="M612 0H82v102l172 41v1176l-172 41v102h530v-102l-172-41V143l172-41V0zM64 1733q0 54 28 78t68 24q39 0 68-24t29-78q0-53-29-78t-68-25q-40 0-68 25t-28 78zm375 0q0 54 28 78t68 24q19 0 36-6t31-18 21-32 8-46q0-53-29-78t-67-25q-40 0-68 25t-28 78z"/><glyph unicode="Ð" glyph-name="Eth" horiz-adv-x="1401" d="M47 805h152v657h407q153 0 277-46t211-136 134-225 48-310q0-185-48-324t-139-233T866 47 565 0H199v643H47v162zm1032-66q0 146-33 252t-96 176-155 102-209 34H385V805h336V643H385V160h162q264 0 398 146t134 433z"/><glyph unicode="Ñ" glyph-name="Ntilde" horiz-adv-x="1493" d="M1294 0h-215L360 1210h-8q6-77 10-153 4-65 6-136t3-128V0H199v1462h213l716-1204h7q-3 76-7 150-1 32-2 65t-3 67-2 65-1 57v800h174V0zM905 1581q-40 0-79 17t-78 39-73 39-67 18q-45 0-69-26t-38-89H397q5 60 21 109t43 83 64 53 83 19q42 0 82-17t79-39 72-38 64-18q45 0 68 26t38 88h105q-5-60-21-108t-43-83-64-54-83-19z"/><glyph unicode="Ò" glyph-name="Ograve" horiz-adv-x="1520" d="M1393 733q0-169-40-308t-121-238-198-153-274-54q-163 0-282 54T280 187 163 425t-38 310q0 170 38 308t117 237 199 151 283 54q155 0 272-53t198-152 120-237 41-310zm-1071 0q0-137 26-246t79-186 136-117 197-41q114 0 196 40t136 117 79 186 25 247q0 138-25 247t-78 184-135 116-196 41q-114 0-197-40t-137-116-80-185-26-247zm548 846H750q-35 28-76 69t-79 86-70 84-48 68v21h219q16-34 37-74t45-81 47-79 45-67v-27z"/><glyph unicode="Ó" glyph-name="Oacute" horiz-adv-x="1520" d="M1393 733q0-169-40-308t-121-238-198-153-274-54q-163 0-282 54T280 187 163 425t-38 310q0 170 38 308t117 237 199 151 283 54q155 0 272-53t198-152 120-237 41-310zm-1071 0q0-137 26-246t79-186 136-117 197-41q114 0 196 40t136 117 79 186 25 247q0 138-25 247t-78 184-135 116-196 41q-114 0-197-40t-137-116-80-185-26-247zm329 873q22 29 45 67t47 78 45 81 37 75h219v-21q-16-27-47-67t-70-85-79-85-76-70H651v27z"/><glyph unicode="Ô" glyph-name="Ocircumflex" horiz-adv-x="1520" d="M1393 733q0-169-40-308t-121-238-198-153-274-54q-163 0-282 54T280 187 163 425t-38 310q0 170 38 308t117 237 199 151 283 54q155 0 272-53t198-152 120-237 41-310zm-1071 0q0-137 26-246t79-186 136-117 197-41q114 0 196 40t136 117 79 186 25 247q0 138-25 247t-78 184-135 116-196 41q-114 0-197-40t-137-116-80-185-26-247zm774 846H975q-51 34-105 82t-106 104q-54-55-107-103t-104-83H432v27q26 29 60 67t67 78 63 81 46 75h192q16-34 45-74t63-81 68-79 60-67v-27z"/><glyph unicode="Õ" glyph-name="Otilde" horiz-adv-x="1520" d="M1393 733q0-169-40-308t-121-238-198-153-274-54q-163 0-282 54T280 187 163 425t-38 310q0 170 38 308t117 237 199 151 283 54q155 0 272-53t198-152 120-237 41-310zm-1071 0q0-137 26-246t79-186 136-117 197-41q114 0 196 40t136 117 79 186 25 247q0 138-25 247t-78 184-135 116-196 41q-114 0-197-40t-137-116-80-185-26-247zm569 848q-40 0-79 17t-78 39-73 39-67 18q-45 0-69-26t-38-89H383q5 60 21 109t43 83 64 53 83 19q42 0 82-17t79-39 72-38 64-18q45 0 68 26t38 88h105q-5-60-21-108t-43-83-64-54-83-19z"/><glyph unicode="Ö" glyph-name="Odieresis" horiz-adv-x="1520" d="M1393 733q0-169-40-308t-121-238-198-153-274-54q-163 0-282 54T280 187 163 425t-38 310q0 170 38 308t117 237 199 151 283 54q155 0 272-53t198-152 120-237 41-310zm-1071 0q0-137 26-246t79-186 136-117 197-41q114 0 196 40t136 117 79 186 25 247q0 138-25 247t-78 184-135 116-196 41q-114 0-197-40t-137-116-80-185-26-247zm155 1000q0 54 28 78t68 24q39 0 68-24t29-78q0-53-29-78t-68-25q-40 0-68 25t-28 78zm375 0q0 54 28 78t68 24q19 0 36-6t31-18 21-32 8-46q0-53-29-78t-67-25q-40 0-68 25t-28 78z"/><glyph unicode="×" glyph-name="multiply" horiz-adv-x="1128" d="M459 723l-318 319 105 105 317-318 322 318 104-103-321-321 319-320-102-102-322 317-317-315-103 103 316 317z"/><glyph unicode="Ø" glyph-name="Oslash" horiz-adv-x="1520" d="M1300 1454l-92-149q91-99 138-244t47-328q0-169-40-308t-121-238-198-153-274-54q-189 0-322 71L360-76 223 2l90 145q-97 100-142 249t-46 339q0 170 38 308t117 237 199 151 283 54q94 0 174-21t147-59l80 127 137-78zM322 733q0-131 23-235t71-183l579 945q-48 29-105 45t-128 16q-114 0-197-40t-137-116-80-185-26-247zm874 0q0 257-88 408L530 201q47-28 104-43t126-15q114 0 196 40t136 117 79 186 25 247z"/><glyph unicode="Ù" glyph-name="Ugrave" horiz-adv-x="1430" d="M1245 1464V516q0-114-33-212t-99-170T946 21 709-20q-128 0-226 38T319 128 218 298t-34 222v942h187V510q0-175 86-271t262-96q89 0 153 27t105 76 61 117 21 149v952h186zm-398 115H727q-35 28-76 69t-79 86-70 84-48 68v21h219q16-34 37-74t45-81 47-79 45-67v-27z"/><glyph unicode="Ú" glyph-name="Uacute" horiz-adv-x="1430" d="M1245 1464V516q0-114-33-212t-99-170T946 21 709-20q-128 0-226 38T319 128 218 298t-34 222v942h187V510q0-175 86-271t262-96q89 0 153 27t105 76 61 117 21 149v952h186zm-655 142q22 29 45 67t47 78 45 81 37 75h219v-21q-16-27-47-67t-70-85-79-85-76-70H590v27z"/><glyph unicode="Û" glyph-name="Ucircumflex" horiz-adv-x="1430" d="M1245 1464V516q0-114-33-212t-99-170T946 21 709-20q-128 0-226 38T319 128 218 298t-34 222v942h187V510q0-175 86-271t262-96q89 0 153 27t105 76 61 117 21 149v952h186zm-202 115H922q-51 34-105 82t-106 104q-54-55-107-103t-104-83H379v27q26 29 60 67t67 78 63 81 46 75h192q16-34 45-74t63-81 68-79 60-67v-27z"/><glyph unicode="Ü" glyph-name="Udieresis" horiz-adv-x="1430" d="M1245 1464V516q0-114-33-212t-99-170T946 21 709-20q-128 0-226 38T319 128 218 298t-34 222v942h187V510q0-175 86-271t262-96q89 0 153 27t105 76 61 117 21 149v952h186zm-813 269q0 54 28 78t68 24q39 0 68-24t29-78q0-53-29-78t-68-25q-40 0-68 25t-28 78zm375 0q0 54 28 78t68 24q19 0 36-6t31-18 21-32 8-46q0-53-29-78t-67-25q-40 0-68 25t-28 78z"/><glyph unicode="Ý" glyph-name="Yacute" horiz-adv-x="1079" d="M539 723l340 739h200L633 569V0H446v559L0 1462h203l336-739zm-97 883q22 29 45 67t47 78 45 81 37 75h219v-21q-16-27-47-67t-70-85-79-85-76-70H442v27z"/><glyph unicode="Þ" glyph-name="Thorn" horiz-adv-x="1180" d="M1075 782q0-91-27-175t-91-148-166-103-256-39H385V0H199v1462h186v-252h176q134 0 231-28t160-83 93-135 30-182zM385 475h129q93 0 162 16t115 51 69 92 23 138q0 143-82 211t-256 68H385V475z"/><glyph unicode="ß" glyph-name="germandbls" horiz-adv-x="1233" d="M1010 1260q0-57-21-101t-53-81-69-67-69-57-53-55-22-57q0-21 7-37t26-36 55-44 92-63q56-37 100-73t74-77 47-89 17-110q0-87-28-150t-78-103T914 0 758-20q-97 0-166 17T469 49v166q26-16 58-31t69-28 74-19 75-8q56 0 96 12t67 35 38 55 12 72q0 36-8 65t-30 58-58 57-92 64q-63 40-105 74t-69 67-38 69-11 77q0 54 20 93t52 71 67 59 67 56 51 62 21 78q0 42-16 73t-47 51-71 30-93 10q-49 0-93-9t-77-34-52-65-20-107V0H174v1200q0 104 31 174t88 113 135 61 170 19q92 0 168-19t130-57 84-96 30-135z"/><glyph unicode="à" glyph-name="agrave" horiz-adv-x="1087" d="M793 0l-37 152h-8q-33-45-66-77t-72-54-87-31-111-10q-69 0-127 19T185 59t-67 102-24 146q0 164 115 252t352 96l184 7v69q0 67-14 112t-42 72-68 40-93 12q-83 0-154-24t-138-58l-64 137q74 40 165 68t191 28q102 0 176-20t123-65 73-114 24-167V0H793zM459 127q61 0 113 19t90 57 59 97 22 138v99l-143-7q-90-4-151-20t-97-44-53-69-16-92q0-92 48-135t128-43zm475 1114H814q-35 28-76 69t-79 86-70 84-48 68v21h219q16-34 37-74t45-81 47-79 45-67v-27z"/><glyph unicode="á" glyph-name="aacute" horiz-adv-x="1087" d="M793 0l-37 152h-8q-33-45-66-77t-72-54-87-31-111-10q-69 0-127 19T185 59t-67 102-24 146q0 164 115 252t352 96l184 7v69q0 67-14 112t-42 72-68 40-93 12q-83 0-154-24t-138-58l-64 137q74 40 165 68t191 28q102 0 176-20t123-65 73-114 24-167V0H793zM459 127q61 0 113 19t90 57 59 97 22 138v99l-143-7q-90-4-151-20t-97-44-53-69-16-92q0-92 48-135t128-43zm-13 1141q22 29 45 67t47 78 45 81 37 75h219v-21q-16-27-47-67t-70-85-79-85-76-70H446v27z"/><glyph unicode="â" glyph-name="acircumflex" horiz-adv-x="1087" d="M793 0l-37 152h-8q-33-45-66-77t-72-54-87-31-111-10q-69 0-127 19T185 59t-67 102-24 146q0 164 115 252t352 96l184 7v69q0 67-14 112t-42 72-68 40-93 12q-83 0-154-24t-138-58l-64 137q74 40 165 68t191 28q102 0 176-20t123-65 73-114 24-167V0H793zM459 127q61 0 113 19t90 57 59 97 22 138v99l-143-7q-90-4-151-20t-97-44-53-69-16-92q0-92 48-135t128-43zm689 1114h-121q-51 34-105 82t-106 104q-54-55-107-103t-104-83H484v27q26 29 60 67t67 78 63 81 46 75h192q16-34 45-74t63-81 68-79 60-67v-27z"/><glyph unicode="ã" glyph-name="atilde" horiz-adv-x="1087" d="M793 0l-37 152h-8q-33-45-66-77t-72-54-87-31-111-10q-69 0-127 19T185 59t-67 102-24 146q0 164 115 252t352 96l184 7v69q0 67-14 112t-42 72-68 40-93 12q-83 0-154-24t-138-58l-64 137q74 40 165 68t191 28q102 0 176-20t123-65 73-114 24-167V0H793zM459 127q61 0 113 19t90 57 59 97 22 138v99l-143-7q-90-4-151-20t-97-44-53-69-16-92q0-92 48-135t128-43zm496 1116q-40 0-79 17t-78 39-73 39-67 18q-45 0-69-26t-38-89H447q5 60 21 109t43 83 64 53 83 19q42 0 82-17t79-39 72-38 64-18q45 0 68 26t38 88h105q-5-60-21-108t-43-83-64-54-83-19z"/><glyph unicode="ä" glyph-name="adieresis" horiz-adv-x="1087" d="M793 0l-37 152h-8q-33-45-66-77t-72-54-87-31-111-10q-69 0-127 19T185 59t-67 102-24 146q0 164 115 252t352 96l184 7v69q0 67-14 112t-42 72-68 40-93 12q-83 0-154-24t-138-58l-64 137q74 40 165 68t191 28q102 0 176-20t123-65 73-114 24-167V0H793zM459 127q61 0 113 19t90 57 59 97 22 138v99l-143-7q-90-4-151-20t-97-44-53-69-16-92q0-92 48-135t128-43zm70 1268q0 54 28 78t68 24q39 0 68-24t29-78q0-53-29-78t-68-25q-40 0-68 25t-28 78zm375 0q0 54 28 78t68 24q19 0 36-6t31-18 21-32 8-46q0-53-29-78t-67-25q-40 0-68 25t-28 78z"/><glyph unicode="å" glyph-name="aring" horiz-adv-x="1087" d="M793 0l-37 152h-8q-33-45-66-77t-72-54-87-31-111-10q-69 0-127 19T185 59t-67 102-24 146q0 164 115 252t352 96l184 7v69q0 67-14 112t-42 72-68 40-93 12q-83 0-154-24t-138-58l-64 137q74 40 165 68t191 28q102 0 176-20t123-65 73-114 24-167V0H793zM459 127q61 0 113 19t90 57 59 97 22 138v99l-143-7q-90-4-151-20t-97-44-53-69-16-92q0-92 48-135t128-43zm580 1331q0-51-17-91t-48-69-73-42-91-15q-50 0-91 14t-70 43-46 67-16 91q0 51 16 90t45 68 71 42 91 15q48 0 90-14t73-42 48-67 18-90zm-117-2q0 53-31 83t-81 30q-50 0-81-30t-32-83q0-53 28-83t85-30q49 0 80 30t32 83z"/><glyph unicode="æ" glyph-name="ae" horiz-adv-x="1706" d="M94 307q0 164 115 252t352 96l184 7v69q0 67-14 112t-42 72-68 40-93 12q-83 0-154-24t-138-58l-64 137q74 40 165 68t191 28q131 0 214-42t126-136q51 85 134 131t186 47q97 0 174-35t131-100 82-155 29-201V514H932q5-193 78-284t221-91q49 0 91 5t82 14 76 24 74 33V53q-39-19-76-33t-77-23-82-13-92-4q-138 0-239 57T825 209q-34-54-72-96t-85-72T562-4 430-20q-71 0-132 19T191 59t-71 102-26 146zm189-2q0-92 48-135t128-43q61 0 113 19t90 57 59 97 22 138v99l-143-7q-90-4-151-20t-97-44-53-69-16-92zm901 662q-110 0-173-78t-75-227h471q0 68-13 124t-40 97-70 62-100 22z"/><glyph unicode="ç" glyph-name="ccedilla" horiz-adv-x="948" d="M594-20q-101 0-189 31T252 111 150 286t-37 257q0 157 38 266t104 178 156 100 191 31q78 0 152-17t125-42l-54-154q-23 10-51 19t-58 17-59 12-55 5q-157 0-229-100t-72-313q0-211 72-308t221-98q81 0 146 18t120 44V39Q806 10 745-5T594-20zm136-267q0-97-70-151t-221-54q-22 0-44 3t-38 6v108q15-3 39-4t41-2q71 0 111 21t40 71q0 24-13 41t-36 31-54 22-69 19L506 0h121l-57-115q34-8 63-21t50-33 34-50 13-68z"/><glyph unicode="è" glyph-name="egrave" horiz-adv-x="1096" d="M608-20q-110 0-201 37T251 125 149 301t-36 240q0 136 33 243t93 181 143 114 185 39q99 0 178-35t134-100 84-155 30-201V514H301q5-193 81-284t228-91q51 0 94 5t84 14 79 24 77 33V53q-40-19-78-33T787-3t-84-13-95-4zm-45 987q-114 0-180-78t-78-227h492q0 68-13 124t-42 97-73 62-106 22zm371 274H814q-35 28-76 69t-79 86-70 84-48 68v21h219q16-34 37-74t45-81 47-79 45-67v-27z"/><glyph unicode="é" glyph-name="eacute" horiz-adv-x="1096" d="M608-20q-110 0-201 37T251 125 149 301t-36 240q0 136 33 243t93 181 143 114 185 39q99 0 178-35t134-100 84-155 30-201V514H301q5-193 81-284t228-91q51 0 94 5t84 14 79 24 77 33V53q-40-19-78-33T787-3t-84-13-95-4zm-45 987q-114 0-180-78t-78-227h492q0 68-13 124t-42 97-73 62-106 22zm-88 301q22 29 45 67t47 78 45 81 37 75h219v-21q-16-27-47-67t-70-85-79-85-76-70H475v27z"/><glyph unicode="ê" glyph-name="ecircumflex" horiz-adv-x="1096" d="M608-20q-110 0-201 37T251 125 149 301t-36 240q0 136 33 243t93 181 143 114 185 39q99 0 178-35t134-100 84-155 30-201V514H301q5-193 81-284t228-91q51 0 94 5t84 14 79 24 77 33V53q-40-19-78-33T787-3t-84-13-95-4zm-45 987q-114 0-180-78t-78-227h492q0 68-13 124t-42 97-73 62-106 22zm581 274h-121q-51 34-105 82t-106 104q-54-55-107-103t-104-83H480v27q26 29 60 67t67 78 63 81 46 75h192q16-34 45-74t63-81 68-79 60-67v-27z"/><glyph unicode="ë" glyph-name="edieresis" horiz-adv-x="1096" d="M608-20q-110 0-201 37T251 125 149 301t-36 240q0 136 33 243t93 181 143 114 185 39q99 0 178-35t134-100 84-155 30-201V514H301q5-193 81-284t228-91q51 0 94 5t84 14 79 24 77 33V53q-40-19-78-33T787-3t-84-13-95-4zm-45 987q-114 0-180-78t-78-227h492q0 68-13 124t-42 97-73 62-106 22zm-38 428q0 54 28 78t68 24q39 0 68-24t29-78q0-53-29-78t-68-25q-40 0-68 25t-28 78zm375 0q0 54 28 78t68 24q19 0 36-6t31-18 21-32 8-46q0-53-29-78t-67-25q-40 0-68 25t-28 78z"/><glyph unicode="ì" glyph-name="igrave" horiz-adv-x="530" d="M356 0H174v1098h182V0zm3 1241H239q-35 28-76 69t-79 86-70 84-48 68v21h219q16-34 37-74t45-81 47-79 45-67v-27z"/><glyph unicode="í" glyph-name="iacute" horiz-adv-x="530" d="M356 0H174v1098h182V0zM185 1268q22 29 45 67t47 78 45 81 37 75h219v-21q-16-27-47-67t-70-85-79-85-76-70H185v27z"/><glyph unicode="î" glyph-name="icircumflex" horiz-adv-x="530" d="M356 0H174v1098h182V0zm241 1241H476q-51 34-105 82t-106 104q-54-55-107-103t-104-83H-67v27q26 29 60 67t67 78 63 81 46 75h192q16-34 45-74t63-81 68-79 60-67v-27z"/><glyph unicode="ï" glyph-name="idieresis" horiz-adv-x="530" d="M356 0H174v1098h182V0zM-18 1395q0 54 28 78t68 24q39 0 68-24t29-78q0-53-29-78t-68-25q-40 0-68 25t-28 78zm375 0q0 54 28 78t68 24q19 0 36-6t31-18 21-32 8-46q0-53-29-78t-67-25q-40 0-68 25t-28 78z"/><glyph unicode="ð" glyph-name="eth" horiz-adv-x="1182" d="M1069 573q0-142-33-252t-96-186T788 20 588-20q-104 0-191 33t-151 96-99 156-36 212q0 119 31 211t91 155 143 95 189 33q102 0 179-29t120-90l8 4q-31 118-91 214t-150 177l-256-153-74 114 217 131q-40 28-82 55t-90 54l70 123q65-32 126-68t120-80l227 138 74-113-195-117q67-65 122-143t95-171 62-204 22-240zm-188-47q0 56-17 109t-52 95-90 66-130 25q-77 0-131-23t-90-67-51-109-17-151q0-76 16-138t52-108 90-69 131-25q154 0 221 99t68 296z"/><glyph unicode="ñ" glyph-name="ntilde" horiz-adv-x="1206" d="M860 0v707q0 130-52 195t-165 65q-81 0-136-26t-88-77-48-125-15-170V0H174v1098h148l26-148h10q25 43 59 74t76 53 87 31 94 10q183 0 275-95t93-306V0H860zm155 1243q-40 0-79 17t-78 39-73 39-67 18q-45 0-69-26t-38-89H507q5 60 21 109t43 83 64 53 83 19q42 0 82-17t79-39 72-38 64-18q45 0 68 26t38 88h105q-5-60-21-108t-43-83-64-54-83-19z"/><glyph unicode="ò" glyph-name="ograve" horiz-adv-x="1182" d="M1069 551q0-137-33-243t-96-179T788 18 588-20q-103 0-190 38T248 128t-99 179-36 244q0 136 33 241t96 178 151 110 201 38q103 0 190-37t150-110 99-178 36-242zm-768 0q0-209 68-314t223-106q154 0 221 105t68 315q0 209-68 312T590 967q-154 0-221-103t-68-313zm701 690H882q-35 28-76 69t-79 86-70 84-48 68v21h219q16-34 37-74t45-81 47-79 45-67v-27z"/><glyph unicode="ó" glyph-name="oacute" horiz-adv-x="1182" d="M1069 551q0-137-33-243t-96-179T788 18 588-20q-103 0-190 38T248 128t-99 179-36 244q0 136 33 241t96 178 151 110 201 38q103 0 190-37t150-110 99-178 36-242zm-768 0q0-209 68-314t223-106q154 0 221 105t68 315q0 209-68 312T590 967q-154 0-221-103t-68-313zm172 717q22 29 45 67t47 78 45 81 37 75h219v-21q-16-27-47-67t-70-85-79-85-76-70H473v27z"/><glyph unicode="ô" glyph-name="ocircumflex" horiz-adv-x="1182" d="M1069 551q0-137-33-243t-96-179T788 18 588-20q-103 0-190 38T248 128t-99 179-36 244q0 136 33 241t96 178 151 110 201 38q103 0 190-37t150-110 99-178 36-242zm-768 0q0-209 68-314t223-106q154 0 221 105t68 315q0 209-68 312T590 967q-154 0-221-103t-68-313zm872 690h-121q-51 34-105 82t-106 104q-54-55-107-103t-104-83H509v27q26 29 60 67t67 78 63 81 46 75h192q16-34 45-74t63-81 68-79 60-67v-27z"/><glyph unicode="õ" glyph-name="otilde" horiz-adv-x="1182" d="M1069 551q0-137-33-243t-96-179T788 18 588-20q-103 0-190 38T248 128t-99 179-36 244q0 136 33 241t96 178 151 110 201 38q103 0 190-37t150-110 99-178 36-242zm-768 0q0-209 68-314t223-106q154 0 221 105t68 315q0 209-68 312T590 967q-154 0-221-103t-68-313zm691 692q-40 0-79 17t-78 39-73 39-67 18q-45 0-69-26t-38-89H484q5 60 21 109t43 83 64 53 83 19q42 0 82-17t79-39 72-38 64-18q45 0 68 26t38 88h105q-5-60-21-108t-43-83-64-54-83-19z"/><glyph unicode="ö" glyph-name="odieresis" horiz-adv-x="1182" d="M1069 551q0-137-33-243t-96-179T788 18 588-20q-103 0-190 38T248 128t-99 179-36 244q0 136 33 241t96 178 151 110 201 38q103 0 190-37t150-110 99-178 36-242zm-768 0q0-209 68-314t223-106q154 0 221 105t68 315q0 209-68 312T590 967q-154 0-221-103t-68-313zm255 844q0 54 28 78t68 24q39 0 68-24t29-78q0-53-29-78t-68-25q-40 0-68 25t-28 78zm375 0q0 54 28 78t68 24q19 0 36-6t31-18 21-32 8-46q0-53-29-78t-67-25q-40 0-68 25t-28 78z"/><glyph unicode="÷" glyph-name="divide" horiz-adv-x="1128" d="M102 647v150h924V647H102zm347-274q0 35 9 58t24 39 36 21 45 7q23 0 44-6t37-22 25-38 9-59q0-33-9-56t-25-39-37-23-44-7q-24 0-44 7t-36 22-25 39-9 57zm0 698q0 35 9 58t24 39 36 21 45 7q23 0 44-6t37-22 25-38 9-59q0-33-9-56t-25-39-37-23-44-7q-24 0-44 7t-36 22-25 39-9 57z"/><glyph unicode="ø" glyph-name="oslash" horiz-adv-x="1182" d="M1071 551q0-137-33-243t-96-179T790 18 590-20q-125 0-223 53L299-76 168-2l80 131q-63 72-98 178t-35 244q0 136 33 241t96 178 151 110 201 38q63 0 119-14t106-43l68 108 131-73-80-129q62-73 96-177t35-239zm-768 0q0-84 9-149t32-117l397 647q-29 17-66 26t-83 9q-154 0-221-103t-68-313zm580 0q0 159-39 258L446 164q31-17 67-25t81-8q154 0 221 105t68 315z"/><glyph unicode="ù" glyph-name="ugrave" horiz-adv-x="1206" d="M885 0l-27 147h-10q-25-43-59-74t-76-52-87-31-94-10q-91 0-160 23T257 75t-69 125-24 181v717h182V391q0-130 53-195t164-65q81 0 136 26t88 76 48 125 15 170v570h182V0H885zm64 1241H829q-35 28-76 69t-79 86-70 84-48 68v21h219q16-34 37-74t45-81 47-79 45-67v-27z"/><glyph unicode="ú" glyph-name="uacute" horiz-adv-x="1206" d="M885 0l-27 147h-10q-25-43-59-74t-76-52-87-31-94-10q-91 0-160 23T257 75t-69 125-24 181v717h182V391q0-130 53-195t164-65q81 0 136 26t88 76 48 125 15 170v570h182V0H885zM489 1268q22 29 45 67t47 78 45 81 37 75h219v-21q-16-27-47-67t-70-85-79-85-76-70H489v27z"/><glyph unicode="û" glyph-name="ucircumflex" horiz-adv-x="1206" d="M885 0l-27 147h-10q-25-43-59-74t-76-52-87-31-94-10q-91 0-160 23T257 75t-69 125-24 181v717h182V391q0-130 53-195t164-65q81 0 136 26t88 76 48 125 15 170v570h182V0H885zm45 1241H809q-51 34-105 82t-106 104q-54-55-107-103t-104-83H266v27q26 29 60 67t67 78 63 81 46 75h192q16-34 45-74t63-81 68-79 60-67v-27z"/><glyph unicode="ü" glyph-name="udieresis" horiz-adv-x="1206" d="M885 0l-27 147h-10q-25-43-59-74t-76-52-87-31-94-10q-91 0-160 23T257 75t-69 125-24 181v717h182V391q0-130 53-195t164-65q81 0 136 26t88 76 48 125 15 170v570h182V0H885zM309 1395q0 54 28 78t68 24q39 0 68-24t29-78q0-53-29-78t-68-25q-40 0-68 25t-28 78zm375 0q0 54 28 78t68 24q19 0 36-6t31-18 21-32 8-46q0-53-29-78t-67-25q-40 0-68 25t-28 78z"/><glyph unicode="ý" glyph-name="yacute" horiz-adv-x="1001" d="M10 1098h189l215-613q14-40 28-84t27-88 22-85 13-76h6q5 25 16 68t24 91 28 96 26 80l199 611h188L557-143q-28-81-60-145t-76-110-101-69-138-25q-52 0-90 5t-65 12v145q21-5 53-8t67-4q48 0 83 11t61 34 44 54 34 73l57 160L10 1098zm397 170q22 29 45 67t47 78 45 81 37 75h219v-21q-16-27-47-67t-70-85-79-85-76-70H407v27z"/><glyph unicode="þ" glyph-name="thorn" horiz-adv-x="1200" d="M356 950q23 35 52 65t67 53 87 36 108 14q94 0 171-36t131-107 85-178 30-246q0-141-30-247t-84-179T841 17 670-20q-59 0-107 13t-86 34-68 51-53 61h-12q3-34 6-65 2-26 4-53t2-44v-469H174v2048h182v-458l-8-148h8zm279 17q-76 0-128-23t-85-70-48-117-18-165v-41q0-101 13-179t46-132 87-81 135-28q135 0 198 109t64 313q0 208-63 311T635 967z"/><glyph unicode="ÿ" glyph-name="ydieresis" horiz-adv-x="1001" d="M10 1098h189l215-613q14-40 28-84t27-88 22-85 13-76h6q5 25 16 68t24 91 28 96 26 80l199 611h188L557-143q-28-81-60-145t-76-110-101-69-138-25q-52 0-90 5t-65 12v145q21-5 53-8t67-4q48 0 83 11t61 34 44 54 34 73l57 160L10 1098zm474 297q0 54 28 78t68 24q39 0 68-24t29-78q0-53-29-78t-68-25q-40 0-68 25t-28 78zm375 0q0 54 28 78t68 24q19 0 36-6t31-18 21-32 8-46q0-53-29-78t-67-25q-40 0-68 25t-28 78z"/><glyph unicode="–" glyph-name="endash" horiz-adv-x="1024" d="M82 465v168h860V465H82z"/><glyph unicode="—" glyph-name="emdash" horiz-adv-x="2048" d="M82 465v168h1884V465H82z"/><glyph unicode="‘" glyph-name="quoteleft" horiz-adv-x="358" d="M37 961l-14 22q14 54 33 115t43 123 49 123 51 118h137q-15-61-29-127t-28-131-24-128-19-115H37z"/><glyph unicode="’" glyph-name="quoteright" horiz-adv-x="358" d="M322 1462l14-22q-14-55-33-115t-43-123-49-124-51-117H23q14 60 28 126t28 132 25 128 19 115h199z"/><glyph unicode="‚" glyph-name="quotesinglbase" horiz-adv-x="512" d="M362 238l15-23q-14-54-33-115T301-23t-49-123-51-118H63q15 61 29 127T120-6t25 128 19 116h198z"/><glyph unicode="“" glyph-name="quotedblleft" horiz-adv-x="743" d="M422 961l-14 22q14 54 33 115t43 123 49 123 51 118h137q-15-61-29-127t-28-131-24-128-19-115H422zm-385 0l-14 22q14 54 33 115t43 123 49 123 51 118h137q-15-61-29-127t-28-131-24-128-19-115H37z"/><glyph unicode="”" glyph-name="quotedblright" horiz-adv-x="743" d="M322 1462l14-22q-14-55-33-115t-43-123-49-124-51-117H23q14 60 28 126t28 132 25 128 19 115h199zm385 0l14-22q-14-55-33-115t-43-123-49-124-51-117H408q14 60 28 126t28 132 25 128 19 115h199z"/><glyph unicode="„" glyph-name="quotedblbase" horiz-adv-x="897" d="M362 238l15-23q-14-54-33-115T301-23t-49-123-51-118H63q15 61 29 127T120-6t25 128 19 116h198zm386 0l14-23q-14-54-33-115T686-23t-49-123-51-118H449q14 61 28 127T505-6t25 128 19 116h199z"/><glyph unicode="•" glyph-name="bullet" horiz-adv-x="770" d="M150 748q0 71 18 121t49 81 75 46 93 14q49 0 92-14t75-45 50-82 19-121q0-70-18-120t-51-81-75-47-92-15q-50 0-93 15t-74 46-50 82-18 120z"/><glyph unicode="‹" glyph-name="guilsinglleft" horiz-adv-x="590" d="M82 553l309 414 117-78-238-348 238-348-117-78L82 526v27z"/><glyph unicode="›" glyph-name="guilsinglright" horiz-adv-x="590" d="M508 526L199 115 82 193l237 348L82 889l117 78 309-414v-27z"/></font>
</defs>
</svg>
