<svg xmlns="http://www.w3.org/2000/svg"><defs><font id="DroidSans" horiz-adv-x="1123"><font-face font-family="Droid Sans" units-per-em="2048" panose-1="2 11 8 6 3 8 4 2 2 4" ascent="1907" descent="-492" alphabetic="0"/><glyph glyph-name="space" horiz-adv-x="532"/><glyph unicode="!" glyph-name="exclam" horiz-adv-x="586" d="M416 485H172l-51 977h346l-51-977zM117 143q0 47 13 79t38 53 56 29 69 9q35 0 66-9t56-29 38-52 14-80q0-45-14-77t-38-53-55-30-67-10q-37 0-69 9t-56 31-37 53-14 77z"/><glyph unicode="&quot;" glyph-name="quotedbl" horiz-adv-x="967" d="M412 1462l-41-528H174l-41 528h279zm422 0l-41-528H596l-41 528h279z"/><glyph unicode="#" glyph-name="numbersign" horiz-adv-x="1323" d="M999 844l-47-232h258V406H913L836 0H616l78 406H500L424 0H209l74 406H45v206h277l47 232H117v209h289l77 407h219l-77-407h198l78 407h215l-78-407h240V844H999zM539 612h196l47 232H586l-47-232z"/><glyph unicode="$" glyph-name="dollar" horiz-adv-x="1128" d="M1061 457q0-75-26-139t-79-112-131-79-180-41v-205H508V82q-66 2-122 8t-105 17-93 26-88 35v264q42-21 91-40t103-34 107-27 107-14v318q-8 3-17 7l-16 6q-8 3-14 5-91 35-159 73t-113 85-68 104-23 129q0 75 28 136t82 107 129 74 171 38v157h137v-151q87-5 178-25t191-63l-101-234q-65 26-135 46t-133 26V862l39-14q95-35 166-72t118-83 70-103 23-133zm-301-6q0 24-6 42t-21 33-35 27-53 27V328q59 9 87 39t28 84zm-361 600q0-47 26-78t83-53v233q-54-6-81-30t-28-72z"/><glyph unicode="%" glyph-name="percent" horiz-adv-x="1804" d="M315 1024q0-127 22-189t73-63q49 0 72 62t24 190q0 250-96 250-50 0-72-61t-23-189zm443 2q0-108-20-194t-64-145-109-90-157-32q-85 0-149 31t-108 91-66 145-22 194q0 108 20 193t62 143 108 90 155 31q86 0 151-31t110-89 66-144 23-193zm667 436L614 0H375l811 1462h239zM1298 440q0-127 22-189t73-63q49 0 72 62t24 190q0 250-96 250-50 0-72-61t-23-189zm443 2q0-108-20-193t-64-145-109-90-157-32q-85 0-149 31t-107 91-66 144-22 194q0 108 20 193t62 143 107 90 155 31q86 0 151-31t110-89 66-144 23-193z"/><glyph unicode="&amp;" glyph-name="ampersand" horiz-adv-x="1479" d="M1475 0h-377l-97 100q-80-55-176-87T612-20q-120 0-217 30T228 94 120 225 82 395q0 77 18 137t53 110 82 89 109 76q-38 46-64 88t-43 84-23 83-7 87q0 78 30 139t85 105 130 67 166 23q86 0 158-21t125-61 83-100 30-136q0-69-22-126t-61-107-89-90-111-76l260-268q35 66 61 139t46 147h317q-15-57-35-120t-48-126-62-127-78-120L1475 0zM403 424q0-44 16-79t44-59 67-37 84-13q60 0 111 15t94 44L510 625q-51-42-79-90t-28-111zm328 700q0 31-10 52t-26 36-37 20-42 7q-22 0-44-6t-41-19-30-36-12-56q0-52 23-98t63-92q77 44 116 88t40 104z"/><glyph unicode="'" glyph-name="quotesingle" horiz-adv-x="545" d="M412 1462l-41-528H174l-41 528h279z"/><glyph unicode="(" glyph-name="parenleft" horiz-adv-x="694" d="M82 561q0 125 18 246t55 236 93 220 135 199h250q-141-193-213-424t-72-475q0-119 18-237t54-231 89-219 122-200H383q-78 90-134 193T155 84t-55 233-18 244z"/><glyph unicode=")" glyph-name="parenright" horiz-adv-x="694" d="M612 561q0-124-18-244T539 85t-93-216-135-193H63q69 94 122 200t89 219 54 231 18 237q0 244-72 475T61 1462h250q78-93 134-198t94-220 55-236 18-247z"/><glyph unicode="*" glyph-name="asterisk" horiz-adv-x="1116" d="M688 1556l-41-368 373 104 33-252-340-24 223-297-227-121-156 313-137-311-236 119 221 297-338 26 39 250 365-104-41 368h262z"/><glyph unicode="+" glyph-name="plus" horiz-adv-x="1128" d="M455 612H88v219h367v369h219V831h366V612H674V248H455v364z"/><glyph unicode="," glyph-name="comma" horiz-adv-x="594" d="M459 215q-14-54-33-115T383-23t-49-123-51-118H63q15 61 29 127T120-6t25 128 19 116h280l15-23z"/><glyph unicode="-" glyph-name="hyphen" horiz-adv-x="659" d="M61 424v250h537V424H61z"/><glyph unicode="." glyph-name="period" horiz-adv-x="584" d="M117 143q0 47 13 79t38 53 56 29 69 9q35 0 66-9t56-29 38-52 14-80q0-45-14-77t-38-53-55-30-67-10q-37 0-69 9t-56 31-37 53-14 77z"/><glyph unicode="/" glyph-name="slash" horiz-adv-x="846" d="M836 1462L291 0H14l545 1462h277z"/><glyph unicode="0" glyph-name="zero" horiz-adv-x="1128" d="M1065 731q0-177-27-316t-88-236T794 31 563-20q-127 0-221 51T186 179 94 415 63 731q0 177 27 317t88 237 155 148 230 52q126 0 220-51t157-148 94-237 31-318zm-694 0q0-250 43-376t149-126q104 0 149 125t46 377q0 251-45 377t-150 127q-53 0-89-32t-60-95-33-157-10-220z"/><glyph unicode="1" glyph-name="one" horiz-adv-x="1128" d="M817 0H508v908q0 36 2 76t3 80 3 73q-5-6-17-18t-27-26-31-30-31-27L242 901 92 1087l471 375h254V0z"/><glyph unicode="2" glyph-name="two" horiz-adv-x="1128" d="M1063 0H82v215l344 371q65 70 118 129t91 115 59 114 21 125q0 74-44 115t-120 41q-79 0-152-39t-153-111L78 1274q45 41 94 78t108 67 130 46 159 18q105 0 188-29t143-82 90-130 32-171q0-86-30-164t-82-154-120-150-147-152L467 274v-14h596V0z"/><glyph unicode="3" glyph-name="three" horiz-adv-x="1128" d="M1006 1135q0-76-24-136t-67-106-100-76-125-47v-6q177-22 268-107t91-231q0-96-34-177T909 107 729 14 473-20Q355-20 251-1T57 59v263q45-24 95-42t100-30 98-19 92-6q86 0 143 16t91 45 48 69 15 89q0 45-18 81t-60 62-109 40-165 14H283v217h102q92 0 153 16t97 45 52 67 15 81q0 78-48 122t-154 44q-48 0-89-9t-77-24-65-32-54-35L59 1339q42 31 91 57t108 45 125 31 143 11q108 0 196-23t152-68 97-109 35-148z"/><glyph unicode="4" glyph-name="four" horiz-adv-x="1128" d="M1085 303H909V0H608v303H4v215l621 944h284V543h176V303zM608 543v285q0 24 2 56t2 64 3 63 3 52 3 33h-9q-18-42-40-89t-52-94L276 543h332z"/><glyph unicode="5" glyph-name="five" horiz-adv-x="1128" d="M598 934q94 0 175-29t141-85 94-139 34-192q0-119-37-213T896 116 718 15 473-20q-55 0-109 5T261-1t-94 25-81 35v267q35-20 81-37t95-30 100-20 95-8q134 0 204 55t70 177q0 108-68 164t-212 57q-26 0-55-3t-58-8-55-10-45-12l-123 66 55 745h772v-262H438l-24-287q32 7 74 14t110 7z"/><glyph unicode="6" glyph-name="six" horiz-adv-x="1128" d="M76 621q0 105 11 209t41 199 80 178 128 142 186 95 254 35q21 0 46-1t50-2 50-5 43-7v-247q-38 9-80 14t-86 6q-135 0-222-33t-138-94-72-144-27-186h12q20 36 48 67t67 54 85 36 107 13q95 0 171-31t128-90 81-145 28-197q0-119-33-213t-96-159T788 15 590-20q-108 0-202 38T225 136 116 335 76 621zm508-394q41 0 74 15t58 47 38 80 14 114q0 107-44 168t-136 62q-46 0-84-18t-65-47-41-65-15-73q0-51 12-101t38-91 63-66 88-25z"/><glyph unicode="7" glyph-name="seven" horiz-adv-x="1128" d="M207 0l520 1200H55v260h1008v-194L530 0H207z"/><glyph unicode="8" glyph-name="eight" horiz-adv-x="1128" d="M565 1481q91 0 172-22t142-66 97-110 36-155q0-66-20-119t-55-97-83-78-104-62q58-31 113-69t99-85 69-107 26-132q0-91-36-165T920 88 765 8 565-20Q447-20 355 7T200 84t-95 123-33 164q0 75 22 135t60 108 89 85 109 65q-49 31-92 67t-74 81-50 99-19 119q0 87 36 152t99 110 143 67 170 22zM358 389q0-40 13-73t38-58 64-37 88-14q105 0 157 49t52 131q0 42-17 75t-45 62-63 53-70 46l-22 14q-44-22-80-47t-61-56-40-67-14-78zm205 866q-33 0-61-10t-49-29-33-47-12-63q0-42 12-72t34-54 50-42 61-37q31 16 59 35t49 43 35 56 13 71q0 35-12 63t-33 47-50 29-63 10z"/><glyph unicode="9" glyph-name="nine" horiz-adv-x="1128" d="M1055 838q0-105-11-209t-41-200-80-177-128-143-186-94-255-35q-21 0-46 1t-50 2-50 4-42 7v248q37-10 79-15t87-6q135 0 222 33t138 94 72 145 27 185h-13q-20-36-48-67t-66-54-86-36-107-13q-95 0-171 31t-128 90-81 145-28 197q0 119 33 213t96 159 150 101 199 35q108 0 202-38t163-118 109-200 40-285zm-508 393q-41 0-75-15t-58-46-38-80-14-115q0-106 45-168t136-62q46 0 84 18t65 47 41 65 15 73q0 51-12 101t-38 91-63 66-88 25z"/><glyph unicode=":" glyph-name="colon" horiz-adv-x="584" d="M117 143q0 47 13 79t38 53 56 29 69 9q35 0 66-9t56-29 38-52 14-80q0-45-14-77t-38-53-55-30-67-10q-37 0-69 9t-56 31-37 53-14 77zm0 826q0 47 13 79t38 53 56 29 69 9q35 0 66-9t56-29 38-52 14-80q0-45-14-77t-38-53-55-30-67-10q-37 0-69 9t-56 30-37 53-14 78z"/><glyph unicode=";" glyph-name="semicolon" horiz-adv-x="594" d="M444 238l15-23q-14-54-33-115T383-23t-49-123-51-118H63q15 61 29 127T120-6t25 128 19 116h280zM117 969q0 47 13 79t38 53 56 29 69 9q35 0 66-9t56-29 38-52 14-80q0-45-14-77t-38-53-55-30-67-10q-37 0-69 9t-56 30-37 53-14 78z"/><glyph unicode="&lt;" glyph-name="less" horiz-adv-x="1128" d="M1040 203L88 641v143l952 496v-240L397 723l643-281V203z"/><glyph unicode="=" glyph-name="equal" horiz-adv-x="1128" d="M88 807v217h952V807H88zm0-389v219h952V418H88z"/><glyph unicode="&gt;" glyph-name="greater" horiz-adv-x="1128" d="M88 442l643 281-643 317v240l952-496V641L88 203v239z"/><glyph unicode="?" glyph-name="question" horiz-adv-x="940" d="M264 485v74q0 51 10 92t32 79 56 73 82 74q42 33 71 59t47 51 26 54 8 65q0 57-38 94t-118 37q-69 0-148-29t-165-71L25 1358q43 25 93 47t105 40 111 28 110 10q102 0 184-24t139-72 87-114 31-153q0-63-14-112t-41-92-69-82-97-84q-42-33-68-57t-42-47-20-45-6-56v-60H264zm-33-342q0 47 13 79t38 53 56 29 70 9q35 0 66-9t56-29 38-52 14-80q0-45-14-77t-38-53-55-30-67-10q-37 0-69 9t-57 31-37 53-14 77z"/><glyph unicode="@" glyph-name="at" horiz-adv-x="1774" d="M1673 752q0-95-22-188t-69-166-115-119-164-46q-38 0-71 9t-62 27-48 41-32 52h-15q-19-25-44-48t-56-42-68-28-82-11q-83 0-147 28t-109 81-67 126-23 163q0 103 31 189t89 148 141 97 186 35q45 0 93-5t92-13 84-18 67-20l-21-419q-2-22-2-43t0-27q0-42 6-69t17-42 24-22 29-6q35 0 61 27t43 73 26 107 9 131q0 128-38 228t-105 169-161 105-202 36q-153 0-269-51t-195-142-119-217-41-274q0-138 35-244t104-179T633 75t233-38q56 0 115 7t117 19 115 29 108 37V-63q-94-42-208-66t-245-25q-181 0-323 51T304 46 154 283t-52 319q0 124 27 237t78 211 124 177 168 136 207 87 242 31q158 0 291-50t229-145 151-230 54-304zM711 627q0-112 38-161t101-50q42 0 72 19t50 55 30 85 14 111l12 221q-20 5-47 8t-55 3q-59 0-100-25t-66-66-37-93-12-107z"/><glyph unicode="A" glyph-name="A" horiz-adv-x="1331" d="M1018 0L918 348H414L313 0H0l475 1468h379L1331 0h-313zM846 608l-94 320q-6 18-18 59t-25 90-26 100-17 85q-4-22-10-52t-15-63-18-68-17-64-14-53-10-34l-93-320h357z"/><glyph unicode="B" glyph-name="B" horiz-adv-x="1315" d="M184 1462h428q138 0 242-19t174-63 105-114 36-174q0-62-15-116t-44-95-70-68-96-37v-10q55-12 102-34t83-62 56-100 21-146q0-100-35-178t-100-133-159-84T700 0H184v1462zm310-579h161q58 0 97 10t63 32 34 52 11 74q0 84-52 120t-167 37H494V883zm0-246V256h182q61 0 102 14t67 40 37 63 11 82q0 41-11 74t-37 58-70 37-107 13H494z"/><glyph unicode="C" glyph-name="C" horiz-adv-x="1305" d="M805 1225q-89 0-157-34t-115-99-71-157-24-208q0-117 21-208t66-153 114-95 166-33q89 0 178 20t195 57V55q-48-20-95-34T987-2 887-15t-111-5q-169 0-293 54T278 186 158 422t-39 307q0 166 45 304t132 239 215 155 294 56q109 0 218-27t210-76l-100-252q-82 39-165 68t-163 29z"/><glyph unicode="D" glyph-name="D" horiz-adv-x="1434" d="M1315 745q0-185-50-324t-146-233T885 47 569 0H184v1462h428q161 0 290-46t222-136 141-225 50-310zm-314-8q0 122-24 210t-71 147-114 86-155 28H494V256h114q196 0 294 120t99 361z"/><glyph unicode="E" glyph-name="E" horiz-adv-x="1147" d="M1026 0H184v1462h842v-254H494V887h495V633H494V256h532V0z"/><glyph unicode="F" glyph-name="F" horiz-adv-x="1124" d="M489 0H184v1462h838v-254H489V831h496V578H489V0z"/><glyph unicode="G" glyph-name="G" horiz-adv-x="1483" d="M739 821h580V63q-58-19-117-34T1080 3 947-14t-148-6q-164 0-290 48T296 172 164 408t-45 325q0 172 50 311t147 236 240 150 327 53q117 0 229-25t205-65l-103-248q-68 34-153 57t-180 23q-102 0-183-35t-140-101-89-157-31-205q0-108 21-197t68-155 118-101 174-36q66 0 111 6t86 14v305H739v258z"/><glyph unicode="H" glyph-name="H" horiz-adv-x="1485" d="M1300 0H991v631H494V0H184v1462h310V889h497v573h309V0z"/><glyph unicode="I" glyph-name="I" horiz-adv-x="797" d="M731 0H66v176l178 82v946l-178 82v176h665v-176l-178-82V258l178-82V0z"/><glyph unicode="J" glyph-name="J" horiz-adv-x="678" d="M-2-430q-65 0-114 6t-83 16v258q37-8 77-14t89-6q46 0 85 10t69 34 46 66 17 103v1419h310V53q0-126-36-217T356-314t-157-88-201-28z"/><glyph unicode="K" glyph-name="K" horiz-adv-x="1298" d="M1298 0H946L610 608l-116-86V0H184v1462h310V758l122 207 334 497h344L827 803 1298 0z"/><glyph unicode="L" glyph-name="L" horiz-adv-x="1096" d="M184 0v1462h310V256h532V0H184z"/><glyph unicode="M" glyph-name="M" horiz-adv-x="1870" d="M772 0L451 1147h-9q6-92 10-178 2-37 3-76t3-77 2-73 1-63V0H184v1462h422L922 344h6l336 1118h422V0h-289v751q0 33 2 70t2 75 3 74q4 84 7 175h-8L1057 0H772z"/><glyph unicode="N" glyph-name="N" horiz-adv-x="1604" d="M1419 0h-393L451 1106h-9q6-77 10-153 4-65 6-136t3-129V0H184v1462h391l574-1095h6q-3 76-7 150-1 32-2 65t-3 67-1 65-1 56v692h278V0z"/><glyph unicode="O" glyph-name="O" horiz-adv-x="1548" d="M1430 733q0-169-39-308t-121-238-204-153-292-54q-168 0-291 54T279 187 159 425t-40 310q0 170 39 308t121 237 204 151 293 54q168 0 291-53t203-152 120-237 40-310zm-992 0q0-115 20-206t61-155 105-98 150-34q89 0 152 34t104 97 60 155 20 207q0 115-19 206t-60 156-104 98-151 34q-87 0-151-34t-105-98-62-155-20-207z"/><glyph unicode="P" glyph-name="P" horiz-adv-x="1225" d="M494 774h61q131 0 197 52t67 169q0 109-59 161t-187 52h-79V774zm639 232q0-96-29-184t-95-155-175-107-269-40h-71V0H184v1462h406q141 0 243-31t169-90 99-143 32-192z"/><glyph unicode="Q" glyph-name="Q" horiz-adv-x="1548" d="M1430 733q0-119-19-223t-59-191-99-153-141-111l361-403h-398L807-18q-7 0-13-1-5-1-10-1t-10 0q-168 0-291 54T279 187 159 425t-40 310q0 170 39 308t121 237 204 151 293 54q168 0 291-53t203-152 120-237 40-310zm-992 0q0-115 20-206t61-155 105-98 150-34q89 0 152 34t104 97 60 155 20 207q0 115-19 206t-60 156-104 98-151 34q-87 0-151-34t-105-98-62-155-20-207z"/><glyph unicode="R" glyph-name="R" horiz-adv-x="1290" d="M494 813h84q129 0 185 51t56 152q0 104-60 148t-186 44h-79V813zm0-252V0H184v1462h400q281 0 415-108t134-330q0-75-20-136t-53-108-77-83-92-60q111-178 199-318 38-60 73-117t64-102 46-72l17-28H946L629 561H494z"/><glyph unicode="S" glyph-name="S" horiz-adv-x="1073" d="M985 406q0-98-33-176T854 96 696 10 481-20Q375-20 277 2T94 68v288q48-23 97-44t99-39 101-27 101-10q51 0 87 11t59 32 33 49 11 63q0 41-17 72t-49 59-76 54-100 55q-46 24-103 58t-107 84-85 122-34 172q0 98 32 175t93 131 145 82 192 28q53 0 103-7t100-20 100-32 103-44l-100-241q-45 21-84 37t-76 27-72 16-72 6q-78 0-119-41t-42-111q0-37 12-65t40-54 71-51 106-59q75-40 138-81t108-92 71-115 25-150z"/><glyph unicode="T" glyph-name="T" horiz-adv-x="1124" d="M717 0H408v1204H41v258h1042v-258H717V0z"/><glyph unicode="U" glyph-name="U" horiz-adv-x="1466" d="M1292 1462V516q0-114-34-212t-105-170T976 21 727-20q-135 0-238 38T316 128 210 298t-36 222v942h309V543q0-81 16-138t47-94 79-54 110-17q131 0 189 76t59 229v917h309z"/><glyph unicode="V" glyph-name="V" horiz-adv-x="1249" d="M936 1462h313L793 0H455L0 1462h313l248-880q5-17 13-57t18-88 19-96 14-81q5 33 14 81t19 95 19 88 15 58l244 880z"/><glyph unicode="W" glyph-name="W" horiz-adv-x="1898" d="M1546 0h-352l-180 721q-4 15-9 42t-13 61-14 71-13 72-10 64-7 48q-2-18-6-47t-11-64-12-72-13-71-13-62-10-44L705 0H352L0 1462h305l166-798q3-16 8-46t13-69 14-80 15-82 13-74 9-57q3 22 8 56t12 72 13 80 14 76 11 63 9 40l203 819h272l203-819q3-12 8-39t12-63 14-77 13-79 12-73 9-56q3 22 8 56t13 75 14 82 15 80 12 68 9 47l166 798h305L1546 0z"/><glyph unicode="X" glyph-name="X" horiz-adv-x="1284" d="M1284 0H930L631 553 332 0H0l444 754-413 708h342l274-526 268 526h334L831 737 1284 0z"/><glyph unicode="Y" glyph-name="Y" horiz-adv-x="1196" d="M598 860l264 602h334L752 569V0H444v559L0 1462h336l262-602z"/><glyph unicode="Z" glyph-name="Z" horiz-adv-x="1104" d="M1055 0H49v201l619 1005H68v256h968v-200L418 256h637V0z"/><glyph unicode="[" glyph-name="bracketleft" horiz-adv-x="678" d="M627-324H143v1786h484v-211H403V-113h224v-211z"/><glyph unicode="\" glyph-name="backslash" horiz-adv-x="846" d="M289 1462L834 0H557L12 1462h277z"/><glyph unicode="]" glyph-name="bracketright" horiz-adv-x="678" d="M51-113h223v1364H51v211h484V-324H51v211z"/><glyph unicode="^" glyph-name="asciicircum" horiz-adv-x="1090" d="M8 520l438 950h144l495-950H846l-322 643q-69-161-140-324T244 520H8z"/><glyph unicode="_" glyph-name="underscore" horiz-adv-x="842" d="M846-324H-4v140h850v-140z"/><glyph unicode="`" glyph-name="grave" horiz-adv-x="1182" d="M645 1241q-34 28-81 69t-94 86-84 84-54 68v21h342q16-34 37-74t45-81 47-79 45-67v-27H645z"/><glyph unicode="a" glyph-name="a" horiz-adv-x="1176" d="M809 0l-59 152h-9q-33-45-66-77t-72-54-87-31-113-10q-68 0-126 21T177 66t-67 110-24 158q0 178 114 262t341 94l178 6v84q0 69-40 102t-112 33q-72 0-140-21t-138-56l-99 202q84 47 186 74t214 27q209 0 320-98t112-298V0H809zm-90 518l-101-4q-61-2-103-16t-67-37-37-56-12-73q0-70 34-99t89-30q42 0 78 14t62 43 42 70 15 96v92z"/><glyph unicode="b" glyph-name="b" horiz-adv-x="1245" d="M756 1139q86 0 157-37t122-110 79-181 29-250q0-144-28-252t-81-182T909 17 748-20q-56 0-99 12t-78 32-59 45-47 54h-21L393 0H160v1556h305v-362q0-33-2-71t-4-72l-6-78h12q21 35 48 65t62 52 81 36 100 13zM653 895q-51 0-86-18t-58-56-32-93-12-132v-33q0-81 9-144t32-105 58-65 91-22q91 0 133 86t43 252q0 165-42 247t-136 83z"/><glyph unicode="c" glyph-name="c" horiz-adv-x="1022" d="M625-20q-120 0-216 33T244 115 139 293t-37 260q0 167 37 279t106 181 165 97 215 29q86 0 171-21t160-59l-88-232q-66 29-127 47t-116 19q-111 0-161-84t-50-254q0-168 50-248t157-80q87 0 158 22t145 58V53q-37-18-72-32T782-2t-74-13-83-5z"/><glyph unicode="d" glyph-name="d" horiz-adv-x="1245" d="M489-20q-86 0-157 37T210 126t-79 181-29 250q0 144 28 252t81 182 126 111 161 37q54 0 99-12t81-35 64-52 51-65h10q-6 39-11 79-5 34-8 72t-4 72v358h305V0H852l-59 145h-13q-21-34-48-64t-62-53-80-35-101-13zm111 243q54 0 92 18t61 56 35 94 13 131v33q0 81-10 144t-33 105-62 65-98 22q-96 0-141-86t-45-252q0-165 45-247t143-83z"/><glyph unicode="e" glyph-name="e" horiz-adv-x="1190" d="M612 922q-81 0-134-57t-62-179h389q-1 51-13 94t-36 74-60 50-84 18zm39-942q-120 0-221 35T256 120 143 298t-41 253q0 147 37 257t103 183 160 111 208 37q111 0 200-33t152-99 96-159 34-217V483H410q2-64 20-115t52-87 81-55 109-19q51 0 96 5t89 17 85 27 86 39V59q-40-21-80-35T862-1t-97-14-114-5z"/><glyph unicode="f" glyph-name="f" horiz-adv-x="793" d="M741 889H514V0H209v889H41v147l168 82v82q0 107 26 177t74 113 116 59 153 18q92 0 155-14t107-33l-72-224q-31 11-65 20t-80 9q-60 0-84-38t-25-99v-70h227V889z"/><glyph unicode="g" glyph-name="g" horiz-adv-x="1130" d="M1085 1116V950l-163-51q20-34 28-70t8-79q0-85-27-155t-80-121-133-77-186-28q-23 0-50 2t-40 6q-20-17-31-35t-12-45q0-21 13-33t34-20 49-10 58-3h174q81 0 145-18t108-57 69-96 24-140q0-95-38-171T922-381t-188-82-259-29q-114 0-199 21t-142 62-85 98-29 129q0 61 21 106T97 1t79 52 92 31q-21 9-41 25t-37 37-27 46-11 54q0 32 9 58t28 48 45 43 61 41q-88 38-139 122t-52 198q0 90 28 161t82 120 134 76 184 26q20 0 45-2t49-6 46-8 33-7h380zM285-158q0-25 10-48t35-42 63-28 96-11q156 0 235 44t79 118q0 63-49 84T602-20H461q-27 0-58-6t-57-23-43-42-18-67zm110 910q0-91 34-141t103-50q72 0 104 50t32 141q0 90-31 143t-105 53q-137 0-137-196z"/><glyph unicode="h" glyph-name="h" horiz-adv-x="1284" d="M1130 0H825v653q0 121-37 181t-116 61q-59 0-99-24t-64-71-34-116-10-158V0H160v1556h305v-317q0-42-2-88t-5-86q-4-46-7-90h16q49 87 125 125t172 39q83 0 150-23t116-74 74-127 26-186V0z"/><glyph unicode="i" glyph-name="i" horiz-adv-x="625" d="M147 1407q0 43 13 71t35 46 53 25 65 7q34 0 64-7t52-24 36-46 14-72q0-42-13-71t-36-46-53-25-64-8q-34 0-64 7t-53 25-36 47-13 71zM465 0H160v1118h305V0z"/><glyph unicode="j" glyph-name="j" horiz-adv-x="625" d="M102-492q-48 0-99 7t-85 18v240q31-10 58-14t61-5q25 0 47 7t39 27 27 52 10 84v1194h305V-121q0-77-19-144t-63-118-113-80-168-29zm45 1899q0 43 13 71t35 46 53 25 65 7q34 0 64-7t52-24 36-46 14-72q0-42-13-71t-36-46-53-25-64-8q-34 0-64 7t-53 25-36 47-13 71z"/><glyph unicode="k" glyph-name="k" horiz-adv-x="1208" d="M453 608l112 170 273 340h344L778 633 1208 0H856L584 430l-119-82V0H160v1556h305V862l-16-254h4z"/><glyph unicode="l" glyph-name="l" horiz-adv-x="625" d="M465 0H160v1556h305V0z"/><glyph unicode="m" glyph-name="m" horiz-adv-x="1929" d="M1120 0H815v653q0 121-36 181t-113 61q-58 0-96-24t-62-71-33-116-10-158V0H160v1118h233l41-143h17q24 43 57 74t74 51 85 29 91 10q115 0 195-39t124-125h25q24 43 58 74t75 51 86 29 92 10q180 0 271-97t92-313V0h-306v653q0 121-36 181t-113 61q-109 0-155-86t-46-248V0z"/><glyph unicode="n" glyph-name="n" horiz-adv-x="1284" d="M1130 0H825v653q0 121-36 181t-117 61q-60 0-100-24t-63-71-34-116-10-158V0H160v1118h233l41-143h17q24 43 58 74t76 51 87 29 94 10q82 0 149-23t115-74 74-127 26-186V0z"/><glyph unicode="o" glyph-name="o" horiz-adv-x="1227" d="M414 561q0-167 47-251t153-85q105 0 152 85t47 251q0 167-47 249t-154 83q-105 0-151-82t-47-250zm710 0q0-140-35-248T987 131 825 19 610-20q-111 0-204 38T246 131 140 313t-38 248q0 139 35 247t102 181 162 112 215 38q111 0 204-38t160-111 106-182 38-247z"/><glyph unicode="p" glyph-name="p" horiz-adv-x="1245" d="M748-20q-55 0-98 12t-78 32-60 45-47 54h-16q4-35 8-66 3-26 5-53t3-43v-453H160v1610h248l43-145h14q21 34 48 64t62 52 81 36 100 14q87 0 158-37t122-110 79-181 28-250q0-143-29-251t-81-182T908 17 748-20zm-95 915q-51 0-86-18t-58-56-32-93-12-132v-33q0-81 9-144t32-105 58-65 91-22q91 0 133 86t43 252q0 165-42 247t-136 83z"/><glyph unicode="q" glyph-name="q" horiz-adv-x="1245" d="M602 219q55 0 92 18t61 56 34 93 12 132v37q0 81-9 144t-33 105-62 65-97 22q-96 0-141-86t-45-252q0-168 45-251t143-83zM489-20q-87 0-158 37T209 126t-79 181-28 250q0 143 28 251t81 182 126 111 161 38q56 0 101-12t81-35 65-52 50-65h8l24 143h258V-492H780v469q0 19 2 47t5 56q3 32 6 65h-13q-20-34-47-64t-62-53-81-35-101-13z"/><glyph unicode="r" glyph-name="r" horiz-adv-x="889" d="M743 1139h26q14 0 28-2t25-3 18-4V844q-8 2-22 4t-29 3-31 2-25 1q-59 0-108-15t-85-48-55-88-20-134V0H160v1118h231l45-168h15q24 43 52 78t62 59 78 38 100 14z"/><glyph unicode="s" glyph-name="s" horiz-adv-x="985" d="M905 332q0-88-32-154T782 68 639 2 451-20q-55 0-102 3T260-5t-81 20-79 30v252q42-21 88-38t93-29 89-20 81-7q41 0 70 7t47 21 27 32 9 40q0 21-6 37t-30 35-67 42-120 58q-73 33-126 65t-88 73-52 91-17 123q0 78 30 136t85 98 132 58 173 20q100 0 190-23t185-69l-92-216q-76 36-145 59t-138 23q-62 0-89-22t-28-60q0-20 7-35t28-32 59-36 99-48q71-31 128-61t98-70 63-91 22-126z"/><glyph unicode="t" glyph-name="t" horiz-adv-x="848" d="M614 223q45 0 85 10t83 25V31Q739 9 676-5T537-20q-73 0-136 17T292 56t-72 114-27 180v539H47v129l168 102 88 236h195v-238h272V889H498V350q0-65 32-96t84-31z"/><glyph unicode="u" glyph-name="u" horiz-adv-x="1284" d="M891 0l-41 143h-16q-25-43-59-73t-76-51-87-29-94-10q-82 0-149 23T254 77t-74 127-26 185v729h305V465q0-121 36-181t117-61q60 0 100 24t63 71 34 116 10 158v526h305V0H891z"/><glyph unicode="v" glyph-name="v" horiz-adv-x="1104" d="M395 0L0 1118h319l185-637q17-57 29-118t16-111h6q3 53 15 112t30 117l184 637h320L709 0H395z"/><glyph unicode="w" glyph-name="w" horiz-adv-x="1651" d="M1014 0l-86 391q-4 17-10 48t-15 71-16 84-18 89q-20 103-44 222h-6q-23-119-42-223-8-44-16-89t-17-84-14-72-11-50L629 0H301L0 1118h303l113-495q9-39 18-93t18-110 16-105 11-79h6q1 19 4 49t9 66 10 71 11 69 10 56 8 35l122 536h336l117-536q5-22 13-68t16-98 15-102 7-78h6q3 25 10 74t17 105 19 113 20 95l117 495h299L1346 0h-332z"/><glyph unicode="x" glyph-name="x" horiz-adv-x="1122" d="M389 571L29 1118h346l186-336 189 336h346L731 571 1112 0H766L561 362 356 0H10l379 571z"/><glyph unicode="y" glyph-name="y" horiz-adv-x="1104" d="M0 1118h334l180-629q16-52 23-111t10-106h6q2 23 5 51t9 57 11 57 14 52l176 629h336L662-143q-62-177-169-263t-268-86q-52 0-90 5t-65 12v242q21-5 53-9t67-4q48 0 82 13t58 36 42 57 31 74l19 56L0 1118z"/><glyph unicode="z" glyph-name="z" horiz-adv-x="936" d="M877 0H55v180l457 705H86v233h772V920L416 233h461V0z"/><glyph unicode="{" glyph-name="braceleft" horiz-adv-x="745" d="M287 367l-65 41-191 41v239q62 0 110 9t82 31 49 56 15 82v318q0 74 19 126t68 86 135 50 216 16v-225q-40-1-72-7t-55-21-35-43-12-70V797q-6-187-234-222v-12q115-17 176-72t58-149V43q0-43 12-70t34-42 55-22 73-7v-226q-131 0-216 16t-134 49-69 87-19 127v315q0 97-65 138z"/><glyph unicode="|" glyph-name="bar" horiz-adv-x="1128" d="M455 1550h219V-465H455v2015z"/><glyph unicode="}" glyph-name="braceright" horiz-adv-x="745" d="M469-45q0-74-19-127t-68-86-135-50-216-16v226q40 1 72 7t54 21 35 43 13 70v299q-3 94 58 149t175 72v12q-227 35-233 222v299q0 43-12 70t-35 42-55 22-72 7v225q131 0 216-16t134-49 69-86 19-127V866q-1-48 15-82t49-55 81-31 111-10V449q-125 0-190-41t-66-138V-45z"/><glyph unicode="~" glyph-name="asciitilde" horiz-adv-x="1128" d="M528 616q-37 16-65 27t-52 17-45 9-44 3q-29 0-60-9t-61-26-58-39-55-47v231q51 54 114 81t142 28q30 0 55-2t54-10 64-19 83-33q38-16 66-26t53-17 45-9 43-3q29 0 60 9t61 26 58 38 54 48V662Q939 553 784 553q-30 0-55 2t-54 9-64 19-83 33z"/><glyph glyph-name="nbspace" horiz-adv-x="532"/><glyph unicode="¡" glyph-name="exclamdown" horiz-adv-x="586" d="M168 606h244l51-975H117l51 975zm299 342q0-47-13-79t-38-53-56-29-69-9q-35 0-66 9t-56 29-38 52-14 80q0 45 14 77t38 53 55 30 67 10q37 0 69-9t56-30 37-53 14-78z"/><glyph unicode="¢" glyph-name="cent" horiz-adv-x="1128" d="M543-20v206q-92 13-166 50T251 340t-80 166-28 237q0 141 28 242t80 170 127 105 165 51v172h178v-164q38-1 76-6t73-14 67-18 56-21l-86-226q-21 10-47 19t-55 17-55 12-52 5q-66 0-112-20t-75-61-43-105-13-151q0-171 57-250t186-80q76 0 146 18t121 43V242q-51-29-113-44t-131-18V-20H543z"/><glyph unicode="£" glyph-name="sterling" horiz-adv-x="1128" d="M680 1483q110 0 199-24t170-58l-93-230q-71 29-129 46t-122 18q-67 0-104-38t-38-134V870h334V651H563V508q0-55-13-95t-36-70-48-49-54-34h678V0H82v248q42 18 75 39t57 50 36 70 12 99v145H84v219h178v195q0 113 31 192t87 130 132 73 168 23z"/><glyph unicode="¤" glyph-name="currency" horiz-adv-x="1128" d="M168 723q0 54 14 103t39 94L92 1047l148 147 127-127q43 25 94 39t102 14q54 0 102-13t95-42l127 129 149-143-129-129q25-42 39-93t15-106q0-56-14-105t-40-94l125-125-145-145-127 125q-44-23-93-37t-104-14q-56 0-105 12t-93 39L240 256 94 401l127 125q-53 91-53 197zm207 0q0-39 15-73t40-60 60-40 73-15q40 0 75 14t61 40 42 60 15 74q0 40-15 74t-41 60-62 41-75 15q-39 0-73-15t-59-40-41-60-15-75z"/><glyph unicode="¥" glyph-name="yen" horiz-adv-x="1128" d="M565 860l244 602h313L760 715h194V537H709V399h245V221H709V0H422v221H174v178h248v138H174v178h191L8 1462h316l241-602z"/><glyph unicode="¦" glyph-name="brokenbar" horiz-adv-x="1128" d="M455 1550h219V735H455v815zm0-1200h219v-815H455v815z"/><glyph unicode="§" glyph-name="section" horiz-adv-x="995" d="M121 805q0 44 10 81t29 69 43 57 51 43q-63 40-98 99t-35 134q0 65 29 118t82 92 128 58 166 21q102 0 190-23t173-61l-82-190q-68 32-138 57t-149 26q-81 0-118-23t-37-71q0-25 12-46t38-40 66-39 97-43q71-28 129-62t100-75 65-92 23-113q0-100-34-161t-91-99q62-40 93-92t32-127q0-74-31-133T776 68 638 3 455-20Q345-20 261 0T106 59v207q39-20 84-37t91-31 90-22 84-8q56 0 93 9t59 25 32 37 10 46q0 25-7 44t-30 39-63 40-107 49q-76 32-136 64t-101 72-62 92-22 120zm223 22q0-63 56-111t175-100l15-6q15 11 29 25t25 33 17 40 7 48q0 32-10 59t-37 52-71 50-116 50q-18-7-34-20t-28-32-20-40-8-48z"/><glyph unicode="¨" glyph-name="dieresis" horiz-adv-x="1182" d="M248 1405q0 35 11 60t29 42 44 25 55 8q29 0 54-8t45-24 30-42 12-61q0-34-11-59t-31-41-44-25-55-8q-29 0-54 8t-44 24-30 42-11 59zm403 0q0 35 11 60t30 42 45 25 56 8q28 0 53-8t45-24 31-42 12-61q0-34-11-59t-31-41-45-25-54-8q-60 0-101 33t-41 100z"/><glyph unicode="©" glyph-name="copyright" horiz-adv-x="1704" d="M895 1010q-97 0-150-74t-53-205q0-135 48-207t155-73q57 0 123 15t123 44V319q-57-27-116-42t-136-15q-107 0-187 34t-133 96-81 148-27 193q0 103 26 188t78 147 132 96 184 34q83 0 160-22t145-56l-74-168q-113 58-217 58zM100 731q0 104 27 200t75 179 118 153 152 117 180 76 200 27q104 0 200-27t179-75 153-118 117-152 76-180 27-200q0-104-27-200t-75-179-118-152-152-118-180-75-200-27Q748-20 652 6T473 82 320 199 203 351t-76 180-27 200zm142 0q0-127 48-238t130-193 194-131 238-48q127 0 238 48t193 130 131 194 48 238q0 127-48 238t-130 193-194 131-238 48q-127 0-238-48t-193-130-131-194-48-238z"/><glyph unicode="ª" glyph-name="ordfeminine" horiz-adv-x="743" d="M520 764l-31 110q-40-58-96-90t-125-32q-50 0-90 13t-70 41-45 70-16 99q0 60 21 101t62 68 100 40 135 18l90 4q0 63-29 90t-84 27q-40 0-89-17t-101-44l-66 135q62 32 136 57t165 25q68 0 118-19t84-55 49-86 17-113V764H520zm-147 317q-38-3-61-13t-37-24-18-32-5-35q0-38 19-56t46-18q32 0 57 11t44 30 27 47 10 60v36l-82-6z"/><glyph unicode="«" glyph-name="guillemotleft" horiz-adv-x="1198" d="M82 573l309 455 219-119-217-348 217-348L391 94 82 547v26zm506 0l309 455 219-119-217-348 217-348L897 94 588 547v26z"/><glyph unicode="¬" glyph-name="logicalnot" horiz-adv-x="1128" d="M1040 248H821v364H88v219h952V248z"/><glyph unicode="­" glyph-name="uni00AD" horiz-adv-x="659" d="M61 424v250h537V424H61z"/><glyph unicode="®" glyph-name="registered" horiz-adv-x="1704" d="M1157 905q0-94-38-149t-105-84l237-400H997L819 610h-47V272H543v916h264q182 0 266-70t84-213zM772 778h31q66 0 94 28t29 95q0 35-7 58t-23 36-39 19-56 6h-29V778zm-672-47q0 104 27 200t75 179 118 153 152 117 180 76 200 27q104 0 200-27t179-75 153-118 117-152 76-180 27-200q0-104-27-200t-75-179-118-152-152-118-180-75-200-27Q748-20 652 6T473 82 320 199 203 351t-76 180-27 200zm142 0q0-127 48-238t130-193 194-131 238-48q127 0 238 48t193 130 131 194 48 238q0 127-48 238t-130 193-194 131-238 48q-127 0-238-48t-193-130-131-194-48-238z"/><glyph unicode="¯" glyph-name="overscore" horiz-adv-x="1024" d="M1030 1556H-6v201h1036v-201z"/><glyph unicode="°" glyph-name="degree" horiz-adv-x="877" d="M92 1137q0 71 27 134t74 110 110 74 135 28q72 0 135-27t110-75 74-110 27-134q0-72-27-135t-73-109-110-73-136-27q-72 0-135 26t-110 73-74 110-27 135zm191 0q0-31 12-59t33-49 49-33 61-13q32 0 60 12t50 34 33 49 13 59q0 32-12 60t-34 50-49 34-61 13q-32 0-60-12t-50-34-33-50-12-61z"/><glyph unicode="±" glyph-name="plusminus" horiz-adv-x="1128" d="M455 674H88v219h367v369h219V893h366V674H674V309H455v365zM88 0v219h952V0H88z"/><glyph unicode="²" glyph-name="twosuperior" horiz-adv-x="776" d="M702 586H55v168l224 219q46 45 76 78t49 60 26 50 8 51q0 38-24 58t-64 20q-40 0-83-20t-97-68L47 1354q65 57 146 93t190 36q66 0 120-16t93-48 60-78 22-108q0-46-12-86t-40-82-69-85-102-99l-105-95h352V586z"/><glyph unicode="³" glyph-name="threesuperior" horiz-adv-x="776" d="M666 1249q0-69-40-119t-130-79v-13q51-10 88-31t61-48 37-61 12-69q0-121-88-190t-274-70q-76 0-142 17T59 639v190q66-40 132-65t139-25q74 0 108 27t35 80q0 21-8 40t-27 33-51 24-80 9H195v160h92q52 0 84 9t50 24 24 35 6 41q0 38-25 63t-76 25q-47 0-89-19t-99-59L61 1372q62 47 137 78t179 31q62 0 115-16t91-47 61-73 22-96z"/><glyph unicode="´" glyph-name="acute" horiz-adv-x="1182" d="M332 1241v27q21 29 45 67t47 78 45 81 37 75h342v-21q-11-18-32-42t-48-53-58-57-62-58-61-53-52-44H332z"/><glyph unicode="µ" glyph-name="mu" horiz-adv-x="1290" d="M465 465q0-121 37-181t119-61q58 0 97 24t63 71 34 116 10 158v526h305V0H897l-43 150h-12q-35-85-87-127T627-20q-54 0-99 23t-73 67q2-42 5-85 2-37 3-79t2-78v-320H160v1610h305V465z"/><glyph unicode="¶" glyph-name="paragraph" horiz-adv-x="1341" d="M1167-260h-161v1616H840V-260H678v819q-61-18-146-18-95 0-172 25t-132 85-85 155-30 236q0 147 32 245t92 159 143 85 183 25h604V-260z"/><glyph unicode="·" glyph-name="middot" horiz-adv-x="584" d="M117 723q0 47 13 79t38 53 56 29 69 9q35 0 66-9t56-29 38-52 14-80q0-45-14-77t-38-53-55-30-67-10q-37 0-69 9t-56 30-37 53-14 78z"/><glyph unicode="¸" glyph-name="cedilla" horiz-adv-x="420" d="M418-250q0-57-15-102t-52-76-95-47-147-17q-45 0-81 6t-65 15v168q15-4 33-7t38-7 38-5 34-2q29 0 50 13t22 49q0 37-37 65T12-154L90 0h193l-27-61q31-10 60-27t51-40 37-54 14-68z"/><glyph unicode="¹" glyph-name="onesuperior" horiz-adv-x="776" d="M584 586H346v496q0 30 2 62t3 57 3 38q-6-8-15-18t-20-22-21-21-19-17l-78-61-109 127 301 235h191V586z"/><glyph unicode="º" glyph-name="ordmasculine" horiz-adv-x="754" d="M696 1116q0-87-22-154t-65-114-101-71-133-25q-69 0-127 24t-101 71-66 114-24 155q0 87 22 154t64 114 101 71 135 24q68 0 125-24t101-70 67-114 24-155zm-436 0q0-100 27-150t90-51q60 0 87 50t28 151q0 100-27 149t-88 50q-62 0-89-49t-28-150z"/><glyph unicode="»" glyph-name="guillemotright" horiz-adv-x="1198" d="M1118 547L809 94 590 213l217 348-217 348 219 119 309-455v-26zm-506 0L303 94 84 213l217 348L84 909l219 119 309-455v-26z"/><glyph unicode="¼" glyph-name="onequarter" horiz-adv-x="1804" d="M1370 1462L559 0H320l811 1462h239zM794 586H556v496q0 30 2 62t3 57 3 38q-6-8-15-18t-20-22-21-21-19-17l-78-61-109 127 301 235h191V586zm888-434h-125V1h-238v151H936v154l385 577h236V320h125V152zm-363 168v164q0 42 1 88t5 96q-5-13-14-34t-21-44-22-44-20-35l-127-191h198z"/><glyph unicode="½" glyph-name="onehalf" horiz-adv-x="1804" d="M1370 1462L559 0H320l811 1462h239zM794 586H556v496q0 30 2 62t3 57 3 38q-6-8-15-18t-20-22-21-21-19-17l-78-61-109 127 301 235h191V586zM1716 1h-647v168l224 219q46 45 76 78t49 60 26 50 8 51q0 38-24 58t-64 20q-40 0-83-20t-97-68l-123 152q65 57 146 93t190 36q66 0 120-16t93-48 60-78 22-108q0-46-12-86t-40-82-69-85-102-99l-105-95h352V1z"/><glyph unicode="¾" glyph-name="threequarters" horiz-adv-x="1804" d="M1441 1462L630 0H391l811 1462h239zm271-1310h-125V1h-238v151H966v154l385 577h236V320h125V152zm-363 168v164q0 42 1 88t5 96q-5-13-14-34t-21-44-22-44-20-35l-127-191h198zm-652 929q0-69-40-119t-130-79v-13q51-10 88-31t61-48 37-61 12-69q0-121-88-190t-274-70q-76 0-142 17T90 639v190q66-40 132-65t139-25q74 0 108 27t35 80q0 21-8 40t-27 33-51 24-80 9H226v160h92q52 0 84 9t50 24 24 35 6 41q0 38-25 63t-76 25q-47 0-89-19t-99-59L92 1372q62 47 137 78t179 31q62 0 115-16t91-47 61-73 22-96z"/><glyph unicode="¿" glyph-name="questiondown" horiz-adv-x="940" d="M686 606v-74q0-51-10-92t-32-79-56-73-82-73q-42-33-71-59t-47-51-26-54-8-65q0-57 39-94t117-37q69 0 149 29t164 71l103-221q-43-26-94-48t-105-40-111-27-110-10q-102 0-183 24t-139 71-87 114T66-29q0 63 13 112t42 92 69 83 97 84q41 33 67 57t42 47 20 46 6 55v59h264zm33 342q0-47-13-79t-38-53-56-29-69-9q-35 0-66 9t-56 29-38 52-14 80q0 45 14 77t38 53 55 30 67 10q37 0 69-9t56-30 37-53 14-78z"/><glyph unicode="À" glyph-name="Agrave" horiz-adv-x="1331" d="M1018 0L918 348H414L313 0H0l475 1468h379L1331 0h-313zM846 608l-94 320q-6 18-18 59t-25 90-26 100-17 85q-4-22-10-52t-15-63-18-68-17-64-14-53-10-34l-93-320h357zm-214 971q-34 28-81 69t-94 86-84 84-54 68v21h342q16-34 37-74t45-81 47-79 45-67v-27H632z"/><glyph unicode="Á" glyph-name="Aacute" horiz-adv-x="1331" d="M1018 0L918 348H414L313 0H0l475 1468h379L1331 0h-313zM846 608l-94 320q-6 18-18 59t-25 90-26 100-17 85q-4-22-10-52t-15-63-18-68-17-64-14-53-10-34l-93-320h357zm-352 971v27q21 29 45 67t47 78 45 81 37 75h342v-21q-11-18-32-42t-48-53-58-57-62-58-61-53-52-44H494z"/><glyph unicode="Â" glyph-name="Acircumflex" horiz-adv-x="1331" d="M1018 0L918 348H414L313 0H0l475 1468h379L1331 0h-313zM846 608l-94 320q-6 18-18 59t-25 90-26 100-17 85q-4-22-10-52t-15-63-18-68-17-64-14-53-10-34l-93-320h357zm33 971q-51 34-106 77t-107 99q-54-56-106-99t-103-77H254v27q26 29 57 67t64 78 63 81 52 75h356q21-34 51-74t62-81 65-79 58-67v-27H879z"/><glyph unicode="Ã" glyph-name="Atilde" horiz-adv-x="1331" d="M1018 0L918 348H414L313 0H0l475 1468h379L1331 0h-313zM846 608l-94 320q-6 18-18 59t-25 90-26 100-17 85q-4-22-10-52t-15-63-18-68-17-64-14-53-10-34l-93-320h357zM504 1684q-31 0-49-26t-31-81H275q6 80 26 138t52 96 77 56 97 19q41 0 80-16t77-35 76-36 74-17q31 0 49 26t31 80h149q-6-79-26-137t-54-96-76-57-96-19q-40 0-80 16t-78 36-75 36-74 17z"/><glyph unicode="Ä" glyph-name="Adieresis" horiz-adv-x="1331" d="M1018 0L918 348H414L313 0H0l475 1468h379L1331 0h-313zM846 608l-94 320q-6 18-18 59t-25 90-26 100-17 85q-4-22-10-52t-15-63-18-68-17-64-14-53-10-34l-93-320h357zM324 1743q0 35 11 60t29 42 44 25 55 8q29 0 54-8t45-24 30-42 12-61q0-34-11-59t-31-41-44-25-55-8q-29 0-54 8t-44 24-30 42-11 59zm403 0q0 35 11 60t30 42 45 25 56 8q28 0 53-8t45-24 31-42 12-61q0-34-11-59t-31-41-45-25-54-8q-60 0-101 33t-41 100z"/><glyph unicode="Å" glyph-name="Aring" horiz-adv-x="1331" d="M1018 0L918 348H414L313 0H0l475 1468h379L1331 0h-313zM846 608l-94 320q-6 18-18 59t-25 90-26 100-17 85q-4-22-10-52t-15-63-18-68-17-64-14-53-10-34l-93-320h357zm72 959q0-56-19-100t-54-76-81-47-100-17q-55 0-101 16t-78 47-51 75-18 100q0 55 18 99t50 74 79 47 101 17q53 0 99-16t80-47 55-74 20-98zm-158-2q0 45-27 70t-69 26q-42 0-69-25t-27-71q0-45 24-71t72-26q42 0 69 26t27 71z"/><glyph unicode="Æ" glyph-name="AE" horiz-adv-x="1888" d="M1767 0H926v348H465L315 0H0l655 1462h1112v-254h-532V887h496V633h-496V256h532V0zM578 608h348v590h-97L578 608z"/><glyph unicode="Ç" glyph-name="Ccedilla" horiz-adv-x="1305" d="M805 1225q-89 0-157-34t-115-99-71-157-24-208q0-117 21-208t66-153 114-95 166-33q89 0 178 20t195 57V55q-48-20-95-34T987-2 887-15t-111-5q-169 0-293 54T278 186 158 422t-39 307q0 166 45 304t132 239 215 155 294 56q109 0 218-27t210-76l-100-252q-82 39-165 68t-163 29zM926-250q0-57-15-102t-52-76-95-47-147-17q-45 0-81 6t-65 15v168q15-4 33-7t38-7 38-5 34-2q29 0 50 13t22 49q0 37-37 65t-129 43L598 0h193l-27-61q31-10 60-27t51-40 37-54 14-68z"/><glyph unicode="È" glyph-name="Egrave" horiz-adv-x="1147" d="M1026 0H184v1462h842v-254H494V887h495V633H494V256h532V0zM572 1579q-34 28-81 69t-94 86-84 84-54 68v21h342q16-34 37-74t45-81 47-79 45-67v-27H572z"/><glyph unicode="É" glyph-name="Eacute" horiz-adv-x="1147" d="M1026 0H184v1462h842v-254H494V887h495V633H494V256h532V0zM424 1579v27q21 29 45 67t47 78 45 81 37 75h342v-21q-11-18-32-42t-48-53-58-57-62-58-61-53-52-44H424z"/><glyph unicode="Ê" glyph-name="Ecircumflex" horiz-adv-x="1147" d="M1026 0H184v1462h842v-254H494V887h495V633H494V256h532V0zM832 1579q-51 34-106 77t-107 99q-54-56-106-99t-103-77H207v27q26 29 57 67t64 78 63 81 52 75h356q21-34 51-74t62-81 65-79 58-67v-27H832z"/><glyph unicode="Ë" glyph-name="Edieresis" horiz-adv-x="1147" d="M1026 0H184v1462h842v-254H494V887h495V633H494V256h532V0zM273 1743q0 35 11 60t29 42 44 25 55 8q29 0 54-8t45-24 30-42 12-61q0-34-11-59t-31-41-44-25-55-8q-29 0-54 8t-44 24-30 42-11 59zm403 0q0 35 11 60t30 42 45 25 56 8q28 0 53-8t45-24 31-42 12-61q0-34-11-59t-31-41-45-25-54-8q-60 0-101 33t-41 100z"/><glyph unicode="Ì" glyph-name="Igrave" horiz-adv-x="797" d="M731 0H66v176l178 82v946l-178 82v176h665v-176l-178-82V258l178-82V0zM355 1579q-34 28-81 69t-94 86-84 84-54 68v21h342q16-34 37-74t45-81 47-79 45-67v-27H355z"/><glyph unicode="Í" glyph-name="Iacute" horiz-adv-x="797" d="M731 0H66v176l178 82v946l-178 82v176h665v-176l-178-82V258l178-82V0zM237 1579v27q21 29 45 67t47 78 45 81 37 75h342v-21q-11-18-32-42t-48-53-58-57-62-58-61-53-52-44H237z"/><glyph unicode="Î" glyph-name="Icircumflex" horiz-adv-x="797" d="M731 0H66v176l178 82v946l-178 82v176h665v-176l-178-82V258l178-82V0zM609 1579q-51 34-106 77t-107 99q-54-56-106-99t-103-77H-16v27q26 29 57 67t64 78 63 81 52 75h356q21-34 51-74t62-81 65-79 58-67v-27H609z"/><glyph unicode="Ï" glyph-name="Idieresis" horiz-adv-x="797" d="M731 0H66v176l178 82v946l-178 82v176h665v-176l-178-82V258l178-82V0zM54 1743q0 35 11 60t29 42 44 25 55 8q29 0 54-8t45-24 30-42 12-61q0-34-11-59t-31-41-44-25-55-8q-29 0-54 8t-44 24-30 42-11 59zm403 0q0 35 11 60t30 42 45 25 56 8q28 0 53-8t45-24 31-42 12-61q0-34-11-59t-31-41-45-25-54-8q-60 0-101 33t-41 100z"/><glyph unicode="Ð" glyph-name="Eth" horiz-adv-x="1434" d="M47 850h137v612h428q161 0 290-46t222-136 141-225 50-310q0-185-50-324t-146-233T885 47 569 0H184v596H47v254zm954-113q0 122-24 210t-71 147-114 86-155 28H494V850h237V596H494V256h114q196 0 294 120t99 361z"/><glyph unicode="Ñ" glyph-name="Ntilde" horiz-adv-x="1604" d="M1419 0h-393L451 1106h-9q6-77 10-153 4-65 6-136t3-129V0H184v1462h391l574-1095h6q-3 76-7 150-1 32-2 65t-3 67-1 65-1 56v692h278V0zM623 1684q-31 0-49-26t-31-81H394q6 80 26 138t52 96 77 56 97 19q41 0 80-16t77-35 76-36 74-17q31 0 49 26t31 80h149q-6-79-26-137t-54-96-76-57-96-19q-40 0-80 16t-78 36-75 36-74 17z"/><glyph unicode="Ò" glyph-name="Ograve" horiz-adv-x="1548" d="M1430 733q0-169-39-308t-121-238-204-153-292-54q-168 0-291 54T279 187 159 425t-40 310q0 170 39 308t121 237 204 151 293 54q168 0 291-53t203-152 120-237 40-310zm-992 0q0-115 20-206t61-155 105-98 150-34q89 0 152 34t104 97 60 155 20 207q0 115-19 206t-60 156-104 98-151 34q-87 0-151-34t-105-98-62-155-20-207zm291 846q-34 28-81 69t-94 86-84 84-54 68v21h342q16-34 37-74t45-81 47-79 45-67v-27H729z"/><glyph unicode="Ó" glyph-name="Oacute" horiz-adv-x="1548" d="M1430 733q0-169-39-308t-121-238-204-153-292-54q-168 0-291 54T279 187 159 425t-40 310q0 170 39 308t121 237 204 151 293 54q168 0 291-53t203-152 120-237 40-310zm-992 0q0-115 20-206t61-155 105-98 150-34q89 0 152 34t104 97 60 155 20 207q0 115-19 206t-60 156-104 98-151 34q-87 0-151-34t-105-98-62-155-20-207zm152 846v27q21 29 45 67t47 78 45 81 37 75h342v-21q-11-18-32-42t-48-53-58-57-62-58-61-53-52-44H590z"/><glyph unicode="Ô" glyph-name="Ocircumflex" horiz-adv-x="1548" d="M1430 733q0-169-39-308t-121-238-204-153-292-54q-168 0-291 54T279 187 159 425t-40 310q0 170 39 308t121 237 204 151 293 54q168 0 291-53t203-152 120-237 40-310zm-992 0q0-115 20-206t61-155 105-98 150-34q89 0 152 34t104 97 60 155 20 207q0 115-19 206t-60 156-104 98-151 34q-87 0-151-34t-105-98-62-155-20-207zm537 846q-51 34-106 77t-107 99q-54-56-106-99t-103-77H350v27q26 29 57 67t64 78 63 81 52 75h356q21-34 51-74t62-81 65-79 58-67v-27H975z"/><glyph unicode="Õ" glyph-name="Otilde" horiz-adv-x="1548" d="M1430 733q0-169-39-308t-121-238-204-153-292-54q-168 0-291 54T279 187 159 425t-40 310q0 170 39 308t121 237 204 151 293 54q168 0 291-53t203-152 120-237 40-310zm-992 0q0-115 20-206t61-155 105-98 150-34q89 0 152 34t104 97 60 155 20 207q0 115-19 206t-60 156-104 98-151 34q-87 0-151-34t-105-98-62-155-20-207zm174 951q-31 0-49-26t-31-81H383q6 80 26 138t52 96 77 56 97 19q41 0 80-16t77-35 76-36 74-17q31 0 49 26t31 80h149q-6-79-26-137t-54-96-76-57-96-19q-40 0-80 16t-78 36-75 36-74 17z"/><glyph unicode="Ö" glyph-name="Odieresis" horiz-adv-x="1548" d="M1430 733q0-169-39-308t-121-238-204-153-292-54q-168 0-291 54T279 187 159 425t-40 310q0 170 39 308t121 237 204 151 293 54q168 0 291-53t203-152 120-237 40-310zm-992 0q0-115 20-206t61-155 105-98 150-34q89 0 152 34t104 97 60 155 20 207q0 115-19 206t-60 156-104 98-151 34q-87 0-151-34t-105-98-62-155-20-207zm-10 1010q0 35 11 60t29 42 44 25 55 8q29 0 54-8t45-24 30-42 12-61q0-34-11-59t-31-41-44-25-55-8q-29 0-54 8t-44 24-30 42-11 59zm403 0q0 35 11 60t30 42 45 25 56 8q28 0 53-8t45-24 31-42 12-61q0-34-11-59t-31-41-45-25-54-8q-60 0-101 33t-41 100z"/><glyph unicode="×" glyph-name="multiply" horiz-adv-x="1128" d="M408 723l-299 301 151 154 301-299 305 299 154-150-305-305 301-303-150-152-305 301-301-299-149 152 297 301z"/><glyph unicode="Ø" glyph-name="Oslash" horiz-adv-x="1548" d="M1430 733q0-169-39-308t-121-238-204-153-292-54q-179 0-307 61L395-76 227 18l82 134q-97 100-143 248t-47 335q0 170 39 308t121 237 204 151 293 54q91 0 168-16t143-48l70 111 166-96-80-129q94-99 140-244t47-330zm-992 0q0-180 47-295l457 746q-69 43-166 43-87 0-151-34t-105-98-62-155-20-207zm672 0q0 171-43 287L612 279q34-19 74-29t88-10q89 0 152 34t104 97 60 155 20 207z"/><glyph unicode="Ù" glyph-name="Ugrave" horiz-adv-x="1466" d="M1292 1462V516q0-114-34-212t-105-170T976 21 727-20q-135 0-238 38T316 128 210 298t-36 222v942h309V543q0-81 16-138t47-94 79-54 110-17q131 0 189 76t59 229v917h309zm-586 117q-34 28-81 69t-94 86-84 84-54 68v21h342q16-34 37-74t45-81 47-79 45-67v-27H706z"/><glyph unicode="Ú" glyph-name="Uacute" horiz-adv-x="1466" d="M1292 1462V516q0-114-34-212t-105-170T976 21 727-20q-135 0-238 38T316 128 210 298t-36 222v942h309V543q0-81 16-138t47-94 79-54 110-17q131 0 189 76t59 229v917h309zm-722 117v27q21 29 45 67t47 78 45 81 37 75h342v-21q-11-18-32-42t-48-53-58-57-62-58-61-53-52-44H570z"/><glyph unicode="Û" glyph-name="Ucircumflex" horiz-adv-x="1466" d="M1292 1462V516q0-114-34-212t-105-170T976 21 727-20q-135 0-238 38T316 128 210 298t-36 222v942h309V543q0-81 16-138t47-94 79-54 110-17q131 0 189 76t59 229v917h309zm-350 117q-51 34-106 77t-107 99q-54-56-106-99t-103-77H317v27q26 29 57 67t64 78 63 81 52 75h356q21-34 51-74t62-81 65-79 58-67v-27H942z"/><glyph unicode="Ü" glyph-name="Udieresis" horiz-adv-x="1466" d="M1292 1462V516q0-114-34-212t-105-170T976 21 727-20q-135 0-238 38T316 128 210 298t-36 222v942h309V543q0-81 16-138t47-94 79-54 110-17q131 0 189 76t59 229v917h309zm-899 281q0 35 11 60t29 42 44 25 55 8q29 0 54-8t45-24 30-42 12-61q0-34-11-59t-31-41-44-25-55-8q-29 0-54 8t-44 24-30 42-11 59zm403 0q0 35 11 60t30 42 45 25 56 8q28 0 53-8t45-24 31-42 12-61q0-34-11-59t-31-41-45-25-54-8q-60 0-101 33t-41 100z"/><glyph unicode="Ý" glyph-name="Yacute" horiz-adv-x="1196" d="M598 860l264 602h334L752 569V0H444v559L0 1462h336l262-602zm-176 719v27q21 29 45 67t47 78 45 81 37 75h342v-21q-11-18-32-42t-48-53-58-57-62-58-61-53-52-44H422z"/><glyph unicode="Þ" glyph-name="Thorn" horiz-adv-x="1225" d="M1133 770q0-94-25-180t-84-152-154-105-237-40H494V0H184v1462h310v-229h161q124 0 214-33t148-93 87-146 29-191zM494 543h84q121 0 181 52t60 175q0 108-53 159t-168 52H494V543z"/><glyph unicode="ß" glyph-name="germandbls" horiz-adv-x="1395" d="M1188 1241q0-64-21-112t-53-87-69-67-69-53-53-45-22-43q0-20 12-37t39-37 68-45 98-64q49-31 87-63t64-71 40-85 14-106q0-172-117-259T862-20q-98 0-170 14T559 43v242q24-16 58-31t73-28 78-19 74-8q80 0 124 30t44 93q0 27-7 48t-27 42-58 45-97 59q-63 36-105 68t-69 63-38 66-11 75q0 53 20 92t52 70 67 57 68 52 51 58 21 71q0 63-50 102t-147 39q-108 0-161-48t-54-153V0H160v1139q0 109 37 189t105 134 165 79 213 26q115 0 209-21t160-63 103-103 36-139z"/><glyph unicode="à" glyph-name="agrave" horiz-adv-x="1176" d="M809 0l-59 152h-9q-33-45-66-77t-72-54-87-31-113-10q-68 0-126 21T177 66t-67 110-24 158q0 178 114 262t341 94l178 6v84q0 69-40 102t-112 33q-72 0-140-21t-138-56l-99 202q84 47 186 74t214 27q209 0 320-98t112-298V0H809zm-90 518l-101-4q-61-2-103-16t-67-37-37-56-12-73q0-70 34-99t89-30q42 0 78 14t62 43 42 70 15 96v92zm89 723q-34 28-81 69t-94 86-84 84-54 68v21h342q16-34 37-74t45-81 47-79 45-67v-27H808z"/><glyph unicode="á" glyph-name="aacute" horiz-adv-x="1176" d="M809 0l-59 152h-9q-33-45-66-77t-72-54-87-31-113-10q-68 0-126 21T177 66t-67 110-24 158q0 178 114 262t341 94l178 6v84q0 69-40 102t-112 33q-72 0-140-21t-138-56l-99 202q84 47 186 74t214 27q209 0 320-98t112-298V0H809zm-90 518l-101-4q-61-2-103-16t-67-37-37-56-12-73q0-70 34-99t89-30q42 0 78 14t62 43 42 70 15 96v92zm-278 723v27q21 29 45 67t47 78 45 81 37 75h342v-21q-11-18-32-42t-48-53-58-57-62-58-61-53-52-44H441z"/><glyph unicode="â" glyph-name="acircumflex" horiz-adv-x="1176" d="M809 0l-59 152h-9q-33-45-66-77t-72-54-87-31-113-10q-68 0-126 21T177 66t-67 110-24 158q0 178 114 262t341 94l178 6v84q0 69-40 102t-112 33q-72 0-140-21t-138-56l-99 202q84 47 186 74t214 27q209 0 320-98t112-298V0H809zm-90 518l-101-4q-61-2-103-16t-67-37-37-56-12-73q0-70 34-99t89-30q42 0 78 14t62 43 42 70 15 96v92zm82 978q-51 34-106 77t-107 99q-54-56-106-99t-103-77H176v27q26 29 57 67t64 78 63 81 52 75h356q21-34 51-74t62-81 65-79 58-67v-27H801z"/><glyph unicode="ã" glyph-name="atilde" horiz-adv-x="1176" d="M809 0l-59 152h-9q-33-45-66-77t-72-54-87-31-113-10q-68 0-126 21T177 66t-67 110-24 158q0 178 114 262t341 94l178 6v84q0 69-40 102t-112 33q-72 0-140-21t-138-56l-99 202q84 47 186 74t214 27q209 0 320-98t112-298V0H809zm-90 518l-101-4q-61-2-103-16t-67-37-37-56-12-73q0-70 34-99t89-30q42 0 78 14t62 43 42 70 15 96v92zm-38 828q-31 0-49-26t-31-81H452q6 80 26 138t52 96 77 56 97 19q41 0 80-16t77-35 76-36 74-17q31 0 49 26t31 80h149q-6-79-26-137t-54-96-76-57-96-19q-40 0-80 16t-78 36-75 36-74 17z"/><glyph unicode="ä" glyph-name="adieresis" horiz-adv-x="1176" d="M809 0l-59 152h-9q-33-45-66-77t-72-54-87-31-113-10q-68 0-126 21T177 66t-67 110-24 158q0 178 114 262t341 94l178 6v84q0 69-40 102t-112 33q-72 0-140-21t-138-56l-99 202q84 47 186 74t214 27q209 0 320-98t112-298V0H809zm-90 518l-101-4q-61-2-103-16t-67-37-37-56-12-73q0-70 34-99t89-30q42 0 78 14t62 43 42 70 15 96v92zm-465 887q0 35 11 60t29 42 44 25 55 8q29 0 54-8t45-24 30-42 12-61q0-34-11-59t-31-41-44-25-55-8q-29 0-54 8t-44 24-30 42-11 59zm403 0q0 35 11 60t30 42 45 25 56 8q28 0 53-8t45-24 31-42 12-61q0-34-11-59t-31-41-45-25-54-8q-60 0-101 33t-41 100z"/><glyph unicode="å" glyph-name="aring" horiz-adv-x="1176" d="M809 0l-59 152h-9q-33-45-66-77t-72-54-87-31-113-10q-68 0-126 21T177 66t-67 110-24 158q0 178 114 262t341 94l178 6v84q0 69-40 102t-112 33q-72 0-140-21t-138-56l-99 202q84 47 186 74t214 27q209 0 320-98t112-298V0H809zm-90 518l-101-4q-61-2-103-16t-67-37-37-56-12-73q0-70 34-99t89-30q42 0 78 14t62 43 42 70 15 96v92zm123 961q0-56-19-100t-54-76-81-47-100-17q-55 0-101 16t-78 47-51 75-18 100q0 55 18 99t50 74 79 47 101 17q53 0 99-16t80-47 55-74 20-98zm-158-2q0 45-27 70t-69 26q-42 0-69-25t-27-71q0-45 24-71t72-26q42 0 69 26t27 71z"/><glyph unicode="æ" glyph-name="ae" horiz-adv-x="1806" d="M1268-20q-131 0-238 50T854 186q-43-54-85-92t-91-64T568-8 424-20q-68 0-129 21T187 66t-74 110-27 158q0 178 114 262t341 94l178 6v84q0 69-40 102t-112 33q-72 0-140-21t-138-56l-99 202q84 47 186 74t214 27q214 0 323-131 126 129 314 129 111 0 200-33t152-99 95-159 34-217V483h-682q2-64 20-115t52-87 81-55 109-19q94 0 181 21t176 67V59q-40-21-80-35t-86-25-97-14-114-5zM719 518l-101-4q-61-2-103-16t-67-37-37-56-12-73q0-70 34-99t89-30q42 0 78 14t62 43 42 70 15 96v92zm510 404q-82 0-135-57t-62-179h389q-1 51-13 94t-35 74-60 50-84 18z"/><glyph unicode="ç" glyph-name="ccedilla" horiz-adv-x="1022" d="M625-20q-120 0-216 33T244 115 139 293t-37 260q0 167 37 279t106 181 165 97 215 29q86 0 171-21t160-59l-88-232q-66 29-127 47t-116 19q-111 0-161-84t-50-254q0-168 50-248t157-80q87 0 158 22t145 58V53q-37-18-72-32T782-2t-74-13-83-5zm153-230q0-57-15-102t-52-76-95-47-147-17q-45 0-81 6t-65 15v168q15-4 33-7t38-7 38-5 34-2q29 0 50 13t22 49q0 37-37 65t-129 43L450 0h193l-27-61q31-10 60-27t51-40 37-54 14-68z"/><glyph unicode="è" glyph-name="egrave" horiz-adv-x="1190" d="M612 922q-81 0-134-57t-62-179h389q-1 51-13 94t-36 74-60 50-84 18zm39-942q-120 0-221 35T256 120 143 298t-41 253q0 147 37 257t103 183 160 111 208 37q111 0 200-33t152-99 96-159 34-217V483H410q2-64 20-115t52-87 81-55 109-19q51 0 96 5t89 17 85 27 86 39V59q-40-21-80-35T862-1t-97-14-114-5zm183 1261q-34 28-81 69t-94 86-84 84-54 68v21h342q16-34 37-74t45-81 47-79 45-67v-27H834z"/><glyph unicode="é" glyph-name="eacute" horiz-adv-x="1190" d="M612 922q-81 0-134-57t-62-179h389q-1 51-13 94t-36 74-60 50-84 18zm39-942q-120 0-221 35T256 120 143 298t-41 253q0 147 37 257t103 183 160 111 208 37q111 0 200-33t152-99 96-159 34-217V483H410q2-64 20-115t52-87 81-55 109-19q51 0 96 5t89 17 85 27 86 39V59q-40-21-80-35T862-1t-97-14-114-5zM447 1241v27q21 29 45 67t47 78 45 81 37 75h342v-21q-11-18-32-42t-48-53-58-57-62-58-61-53-52-44H447z"/><glyph unicode="ê" glyph-name="ecircumflex" horiz-adv-x="1190" d="M612 922q-81 0-134-57t-62-179h389q-1 51-13 94t-36 74-60 50-84 18zm39-942q-120 0-221 35T256 120 143 298t-41 253q0 147 37 257t103 183 160 111 208 37q111 0 200-33t152-99 96-159 34-217V483H410q2-64 20-115t52-87 81-55 109-19q51 0 96 5t89 17 85 27 86 39V59q-40-21-80-35T862-1t-97-14-114-5zm168 1261q-51 34-106 77t-107 99q-54-56-106-99t-103-77H194v27q26 29 57 67t64 78 63 81 52 75h356q21-34 51-74t62-81 65-79 58-67v-27H819z"/><glyph unicode="ë" glyph-name="edieresis" horiz-adv-x="1190" d="M612 922q-81 0-134-57t-62-179h389q-1 51-13 94t-36 74-60 50-84 18zm39-942q-120 0-221 35T256 120 143 298t-41 253q0 147 37 257t103 183 160 111 208 37q111 0 200-33t152-99 96-159 34-217V483H410q2-64 20-115t52-87 81-55 109-19q51 0 96 5t89 17 85 27 86 39V59q-40-21-80-35T862-1t-97-14-114-5zM266 1405q0 35 11 60t29 42 44 25 55 8q29 0 54-8t45-24 30-42 12-61q0-34-11-59t-31-41-44-25-55-8q-29 0-54 8t-44 24-30 42-11 59zm403 0q0 35 11 60t30 42 45 25 56 8q28 0 53-8t45-24 31-42 12-61q0-34-11-59t-31-41-45-25-54-8q-60 0-101 33t-41 100z"/><glyph unicode="ì" glyph-name="igrave" horiz-adv-x="625" d="M465 0H160v1118h305V0zM269 1241q-34 28-81 69t-94 86-84 84-54 68v21h342q16-34 37-74t45-81 47-79 45-67v-27H269z"/><glyph unicode="í" glyph-name="iacute" horiz-adv-x="625" d="M465 0H160v1118h305V0zM145 1241v27q21 29 45 67t47 78 45 81 37 75h342v-21q-11-18-32-42t-48-53-58-57-62-58-61-53-52-44H145z"/><glyph unicode="î" glyph-name="icircumflex" horiz-adv-x="625" d="M465 0H160v1118h305V0zm56 1241q-51 34-106 77t-107 99q-54-56-106-99t-103-77h-203v27q26 29 57 67t64 78 63 81 52 75h356q21-34 51-74t62-81 65-79 58-67v-27H521z"/><glyph unicode="ï" glyph-name="idieresis" horiz-adv-x="625" d="M465 0H160v1118h305V0zM-32 1405q0 35 11 60t29 42 44 25 55 8q29 0 54-8t45-24 30-42 12-61q0-34-11-59t-31-41-44-25-55-8q-29 0-54 8t-44 24-30 42-11 59zm403 0q0 35 11 60t30 42 45 25 56 8q28 0 53-8t45-24 31-42 12-61q0-34-11-59t-31-41-45-25-54-8q-60 0-101 33t-41 100z"/><glyph unicode="ð" glyph-name="eth" horiz-adv-x="1182" d="M457 1309q-34 21-73 45t-81 47l96 170q73-34 137-68t121-73l226 139 100-154-174-106q72-69 126-147t89-169 54-195 18-225q0-142-36-252T957 135 795 20 582-20q-111 0-204 34t-160 99-106 159-38 217q0 122 32 216t91 158 140 98 179 34q96 0 164-31t100-81l21 2q-28 88-78 165t-117 134l-231-144-101 156 183 113zm327-777q0 47-11 90t-36 76-62 52-89 20q-108 0-154-70t-47-213q0-63 11-115t36-89 63-57 91-21q106 0 152 81t46 246z"/><glyph unicode="ñ" glyph-name="ntilde" horiz-adv-x="1284" d="M1130 0H825v653q0 121-36 181t-117 61q-60 0-100-24t-63-71-34-116-10-158V0H160v1118h233l41-143h17q24 43 58 74t76 51 87 29 94 10q82 0 149-23t115-74 74-127 26-186V0zM477 1346q-31 0-49-26t-31-81H248q6 80 26 138t52 96 77 56 97 19q41 0 80-16t77-35 76-36 74-17q31 0 49 26t31 80h149q-6-79-26-137t-54-96-76-57-96-19q-40 0-80 16t-78 36-75 36-74 17z"/><glyph unicode="ò" glyph-name="ograve" horiz-adv-x="1227" d="M414 561q0-167 47-251t153-85q105 0 152 85t47 251q0 167-47 249t-154 83q-105 0-151-82t-47-250zm710 0q0-140-35-248T987 131 825 19 610-20q-111 0-204 38T246 131 140 313t-38 248q0 139 35 247t102 181 162 112 215 38q111 0 204-38t160-111 106-182 38-247zm-283 680q-34 28-81 69t-94 86-84 84-54 68v21h342q16-34 37-74t45-81 47-79 45-67v-27H841z"/><glyph unicode="ó" glyph-name="oacute" horiz-adv-x="1227" d="M414 561q0-167 47-251t153-85q105 0 152 85t47 251q0 167-47 249t-154 83q-105 0-151-82t-47-250zm710 0q0-140-35-248T987 131 825 19 610-20q-111 0-204 38T246 131 140 313t-38 248q0 139 35 247t102 181 162 112 215 38q111 0 204-38t160-111 106-182 38-247zm-690 680v27q21 29 45 67t47 78 45 81 37 75h342v-21q-11-18-32-42t-48-53-58-57-62-58-61-53-52-44H434z"/><glyph unicode="ô" glyph-name="ocircumflex" horiz-adv-x="1227" d="M414 561q0-167 47-251t153-85q105 0 152 85t47 251q0 167-47 249t-154 83q-105 0-151-82t-47-250zm710 0q0-140-35-248T987 131 825 19 610-20q-111 0-204 38T246 131 140 313t-38 248q0 139 35 247t102 181 162 112 215 38q111 0 204-38t160-111 106-182 38-247zm-303 680q-51 34-106 77t-107 99q-54-56-106-99t-103-77H196v27q26 29 57 67t64 78 63 81 52 75h356q21-34 51-74t62-81 65-79 58-67v-27H821z"/><glyph unicode="õ" glyph-name="otilde" horiz-adv-x="1227" d="M414 561q0-167 47-251t153-85q105 0 152 85t47 251q0 167-47 249t-154 83q-105 0-151-82t-47-250zm710 0q0-140-35-248T987 131 825 19 610-20q-111 0-204 38T246 131 140 313t-38 248q0 139 35 247t102 181 162 112 215 38q111 0 204-38t160-111 106-182 38-247zm-680 785q-31 0-49-26t-31-81H215q6 80 26 138t52 96 77 56 97 19q41 0 80-16t77-35 76-36 74-17q31 0 49 26t31 80h149q-6-79-26-137t-54-96-76-57-96-19q-40 0-80 16t-78 36-75 36-74 17z"/><glyph unicode="ö" glyph-name="odieresis" horiz-adv-x="1227" d="M414 561q0-167 47-251t153-85q105 0 152 85t47 251q0 167-47 249t-154 83q-105 0-151-82t-47-250zm710 0q0-140-35-248T987 131 825 19 610-20q-111 0-204 38T246 131 140 313t-38 248q0 139 35 247t102 181 162 112 215 38q111 0 204-38t160-111 106-182 38-247zm-858 844q0 35 11 60t29 42 44 25 55 8q29 0 54-8t45-24 30-42 12-61q0-34-11-59t-31-41-44-25-55-8q-29 0-54 8t-44 24-30 42-11 59zm403 0q0 35 11 60t30 42 45 25 56 8q28 0 53-8t45-24 31-42 12-61q0-34-11-59t-31-41-45-25-54-8q-60 0-101 33t-41 100z"/><glyph unicode="÷" glyph-name="divide" horiz-adv-x="1128" d="M88 612v219h952V612H88zm336-239q0 42 11 71t30 46 44 26 54 8q28 0 53-8t44-25 30-47 12-71q0-40-11-69t-31-47-44-27-53-9q-28 0-53 8t-45 27-30 48-11 69zm0 698q0 42 11 71t30 47 44 26 54 8q28 0 53-8t44-26 30-47 12-71q0-40-11-68t-31-47-44-27-53-9q-28 0-53 8t-45 27-30 47-11 69z"/><glyph unicode="ø" glyph-name="oslash" horiz-adv-x="1227" d="M1124 561q0-140-35-248T987 131 825 19 610-20q-57 0-109 10T401 18l-57-94-162 90 68 111q-69 74-108 183t-40 253q0 139 35 247t102 181 162 112 215 38q62 0 119-13t109-36l49 79 160-96-62-98q63-72 98-176t35-238zm-710 0q0-86 12-151l283 458q-40 25-97 25-105 0-151-82t-47-250zm399 0q0 64-6 113L539 240q17-8 35-11t40-4q105 0 152 85t47 251z"/><glyph unicode="ù" glyph-name="ugrave" horiz-adv-x="1284" d="M891 0l-41 143h-16q-25-43-59-73t-76-51-87-29-94-10q-82 0-149 23T254 77t-74 127-26 185v729h305V465q0-121 36-181t117-61q60 0 100 24t63 71 34 116 10 158v526h305V0H891zm-52 1241q-34 28-81 69t-94 86-84 84-54 68v21h342q16-34 37-74t45-81 47-79 45-67v-27H839z"/><glyph unicode="ú" glyph-name="uacute" horiz-adv-x="1284" d="M891 0l-41 143h-16q-25-43-59-73t-76-51-87-29-94-10q-82 0-149 23T254 77t-74 127-26 185v729h305V465q0-121 36-181t117-61q60 0 100 24t63 71 34 116 10 158v526h305V0H891zM461 1241v27q21 29 45 67t47 78 45 81 37 75h342v-21q-11-18-32-42t-48-53-58-57-62-58-61-53-52-44H461z"/><glyph unicode="û" glyph-name="ucircumflex" horiz-adv-x="1284" d="M891 0l-41 143h-16q-25-43-59-73t-76-51-87-29-94-10q-82 0-149 23T254 77t-74 127-26 185v729h305V465q0-121 36-181t117-61q60 0 100 24t63 71 34 116 10 158v526h305V0H891zm-49 1241q-51 34-106 77t-107 99q-54-56-106-99t-103-77H217v27q26 29 57 67t64 78 63 81 52 75h356q21-34 51-74t62-81 65-79 58-67v-27H842z"/><glyph unicode="ü" glyph-name="udieresis" horiz-adv-x="1284" d="M891 0l-41 143h-16q-25-43-59-73t-76-51-87-29-94-10q-82 0-149 23T254 77t-74 127-26 185v729h305V465q0-121 36-181t117-61q60 0 100 24t63 71 34 116 10 158v526h305V0H891zM295 1405q0 35 11 60t29 42 44 25 55 8q29 0 54-8t45-24 30-42 12-61q0-34-11-59t-31-41-44-25-55-8q-29 0-54 8t-44 24-30 42-11 59zm403 0q0 35 11 60t30 42 45 25 56 8q28 0 53-8t45-24 31-42 12-61q0-34-11-59t-31-41-45-25-54-8q-60 0-101 33t-41 100z"/><glyph unicode="ý" glyph-name="yacute" horiz-adv-x="1104" d="M0 1118h334l180-629q16-52 23-111t10-106h6q2 23 5 51t9 57 11 57 14 52l176 629h336L662-143q-62-177-169-263t-268-86q-52 0-90 5t-65 12v242q21-5 53-9t67-4q48 0 82 13t58 36 42 57 31 74l19 56L0 1118zm393 123v27q21 29 45 67t47 78 45 81 37 75h342v-21q-11-18-32-42t-48-53-58-57-62-58-61-53-52-44H393z"/><glyph unicode="þ" glyph-name="thorn" horiz-adv-x="1245" d="M465 973q20 35 47 65t64 52 80 36 100 13q86 0 157-37t122-110 79-181 29-250q0-143-28-251t-79-182T914 17 756-20q-55 0-100 10t-80 30-63 44-48 53h-14q3-32 7-62 3-26 5-52t2-42v-453H160v2048h305v-391q0-24-2-57t-5-63q-4-35-7-72h14zm188-78q-51 0-86-18t-58-56-32-93-12-132v-33q0-81 9-144t32-105 58-65 91-22q91 0 133 86t43 252q0 165-42 247t-136 83z"/><glyph unicode="ÿ" glyph-name="ydieresis" horiz-adv-x="1104" d="M0 1118h334l180-629q16-52 23-111t10-106h6q2 23 5 51t9 57 11 57 14 52l176 629h336L662-143q-62-177-169-263t-268-86q-52 0-90 5t-65 12v242q21-5 53-9t67-4q48 0 82 13t58 36 42 57 31 74l19 56L0 1118zm466 287q0 35 11 60t29 42 44 25 55 8q29 0 54-8t45-24 30-42 12-61q0-34-11-59t-31-41-44-25-55-8q-29 0-54 8t-44 24-30 42-11 59zm403 0q0 35 11 60t30 42 45 25 56 8q28 0 53-8t45-24 31-42 12-61q0-34-11-59t-31-41-45-25-54-8q-60 0-101 33t-41 100z"/><glyph unicode="–" glyph-name="endash" horiz-adv-x="1024" d="M82 436v230h860V436H82z"/><glyph unicode="—" glyph-name="emdash" horiz-adv-x="2048" d="M82 436v230h1884V436H82z"/><glyph unicode="‘" glyph-name="quoteleft" horiz-adv-x="440" d="M37 961l-14 22q14 54 33 115t43 123 49 123 51 118h219q-15-61-29-127t-28-131-25-128-19-115H37z"/><glyph unicode="’" glyph-name="quoteright" horiz-adv-x="440" d="M403 1462l15-22q-14-55-33-115t-43-123-49-124-51-117H23q14 60 28 126t28 132 25 128 19 115h280z"/><glyph unicode="‚" glyph-name="quotesinglbase" horiz-adv-x="594" d="M459 215q-14-54-33-115T383-23t-49-123-51-118H63q15 61 29 127T120-6t25 128 19 116h280l15-23z"/><glyph unicode="“" glyph-name="quotedblleft" horiz-adv-x="907" d="M489 983q14 54 34 115t43 123 49 123 51 118h219q-15-61-29-127t-28-131-25-128-19-115H504l-15 22zm-466 0q14 54 33 115t43 123 49 123 51 118h219q-15-61-29-127t-28-131-25-128-19-115H37l-14 22z"/><glyph unicode="”" glyph-name="quotedblright" horiz-adv-x="907" d="M418 1440q-14-55-33-115t-43-123-49-124-51-117H23q14 60 28 126t28 132 25 128 19 115h280l15-22zm467 0q-14-55-33-115t-43-123-49-124-51-117H489q15 60 29 126t28 132 25 128 19 115h280l15-22z"/><glyph unicode="„" glyph-name="quotedblbase" horiz-adv-x="1061" d="M459 215q-14-54-33-115T383-23t-49-123-51-118H63q15 61 29 127T120-6t25 128 19 116h280l15-23zm467 0q-14-54-33-115T850-23t-49-123-51-118H530q15 61 29 127T587-6t25 128 19 116h280l15-23z"/><glyph unicode="•" glyph-name="bullet" horiz-adv-x="770" d="M98 748q0 86 22 146t60 98 91 55 114 18q59 0 111-17t92-56 61-98 23-146q0-85-22-145t-62-98-91-57-112-18q-61 0-113 18t-91 56-61 99-22 145z"/><glyph unicode="‹" glyph-name="guilsinglleft" horiz-adv-x="692" d="M82 573l309 455 219-119-217-348 217-348L391 94 82 547v26z"/><glyph unicode="›" glyph-name="guilsinglright" horiz-adv-x="692" d="M610 547L301 94 82 213l217 348L82 909l219 119 309-455v-26z"/></font>
</defs>
</svg>
