<svg xmlns="http://www.w3.org/2000/svg" xmlns:xlink="http://www.w3.org/1999/xlink" width="1920" height="1080" viewBox="0 0 508 285.75">
    <defs>
        <linearGradient id="a">
            <stop style="stop-color:#20464c;stop-opacity:1" offset="0"/>
            <stop style="stop-color:#0d253f;stop-opacity:.999722" offset="1"/>
        </linearGradient>
        <linearGradient id="c" y1="40.76" x2="190.24" y2="40.76" gradientUnits="userSpaceOnUse" gradientTransform="translate(95.25 74.882) scale(1.66894)">
            <stop offset="0" stop-color="#90cea1"/>
            <stop offset=".56" stop-color="#3cbec9"/>
            <stop offset="1" stop-color="#00b3e5"/>
        </linearGradient>
        <radialGradient xlink:href="#a" id="b" cx="125.255" cy="16.735" fx="125.255" fy="16.735" r="254" gradientTransform="matrix(0 1.06475 -1.74952 0 154.532 -61.444)" gradientUnits="userSpaceOnUse"/>
    </defs>
    <path style="opacity:.98;fill:url(#b);stroke-width:2.64583;fill-opacity:1" d="M0 0h508v285.75H0z"/>
    <path d="M271.607 135.064H383.26a29.49 29.49 0 0 0 29.49-29.473 29.49 29.49 0 0 0-29.49-29.49H271.607a29.49 29.49 0 0 0-29.49 29.49 29.49 29.49 0 0 0 29.49 29.473zM124.74 210.167h128.342a29.49 29.49 0 0 0 29.49-29.474 29.49 29.49 0 0 0-29.49-29.49H124.74a29.49 29.49 0 0 0-29.49 29.49 29.49 29.49 0 0 0 29.49 29.474zm-12.116-76.17h13.017V86.43h16.857V74.882h-46.73v11.516h16.856zm46.897 0h13.018V88.65h.167l15.02 45.312h10.014l15.52-45.312h.167v45.312h13.018v-59.08h-19.777l-13.686 38.552h-.167l-13.601-38.553H159.52zm190.126 33.795a25.151 25.151 0 0 0-7.543-9.212 30.992 30.992 0 0 0-11.149-5.14 55.976 55.976 0 0 0-13.468-1.67H297.96v59.081h21.279a41.023 41.023 0 0 0 12.6-1.92 32.277 32.277 0 0 0 10.598-5.54 27.154 27.154 0 0 0 7.294-9.18 28.222 28.222 0 0 0 2.72-12.65 30.875 30.875 0 0 0-2.804-13.769zm-12.4 21.58a14.687 14.687 0 0 1-4.406 5.674 17.858 17.858 0 0 1-6.676 3.038 36 36 0 0 1-8.345.918h-6.759v-35.048h7.677a28.372 28.372 0 0 1 7.794 1.051 19.46 19.46 0 0 1 6.476 3.121 15.254 15.254 0 0 1 4.239 5.224 16.472 16.472 0 0 1 1.669 7.544 19.844 19.844 0 0 1-1.67 8.478zm74.485-.217a13.352 13.352 0 0 0-2.637-4.373 13.986 13.986 0 0 0-4.039-3.087 17.207 17.207 0 0 0-5.29-1.67v-.166a15.388 15.388 0 0 0 7.376-4.707 12.4 12.4 0 0 0 2.804-8.344 14.053 14.053 0 0 0-1.92-7.761 13.502 13.502 0 0 0-5.006-4.54 20.962 20.962 0 0 0-6.976-2.17 54.808 54.808 0 0 0-7.71-.55h-22.03v59.08h24.199a37.401 37.401 0 0 0 7.877-.834 22.58 22.58 0 0 0 7.143-2.754 15.721 15.721 0 0 0 5.174-5.006 14.22 14.22 0 0 0 2.003-7.811 15.671 15.671 0 0 0-.918-5.307zm-32.411-26.286h8.845a16.69 16.69 0 0 1 3.088.3 10.314 10.314 0 0 1 2.837.952 5.658 5.658 0 0 1 2.036 1.885 5.374 5.374 0 0 1 .801 3.038 6.058 6.058 0 0 1-.717 3.004 5.674 5.674 0 0 1-1.87 2.003 8.211 8.211 0 0 1-2.636 1.085 12.534 12.534 0 0 1-2.954.333h-9.43zm19.56 33.379a6.509 6.509 0 0 1-2.036 2.17 7.744 7.744 0 0 1-2.804 1.168 13.652 13.652 0 0 1-3.037.333H379.32v-13.351h9.847a25.618 25.618 0 0 1 3.338.25 14.136 14.136 0 0 1 3.421.918 6.676 6.676 0 0 1 2.62 1.97 5.19 5.19 0 0 1 1.052 3.338 6.192 6.192 0 0 1-.718 3.204z" style="fill:url(#c);stroke-width:1.66894"/>
</svg>
