<?xml version="1.0" encoding="UTF-8" standalone="no"?><!DOCTYPE svg PUBLIC "-//W3C//DTD SVG 1.1//EN" "http://www.w3.org/Graphics/SVG/1.1/DTD/svg11.dtd"><svg width="100%" height="100%" viewBox="0 0 1920 1080" version="1.1" xmlns="http://www.w3.org/2000/svg" xmlns:xlink="http://www.w3.org/1999/xlink" xml:space="preserve" style="fill-rule:evenodd;clip-rule:evenodd;stroke-linejoin:round;stroke-miterlimit:2;"><rect x="0" y="0" width="1920" height="1080" style="fill:url(#_Radial1);fill-rule:nonzero;"/><g><path d="M487.844,725.411c-10.779,0 -20.007,-3.838 -27.683,-11.514c-7.676,-7.676 -11.514,-16.904 -11.514,-27.683l0,-274.381c0,-10.779 3.838,-20.007 11.514,-27.683c7.676,-7.676 16.904,-11.514 27.683,-11.514l274.381,0c10.779,0 20.007,3.838 27.683,11.514c7.676,7.676 11.514,16.904 11.514,27.683l0,274.381c0,10.779 -3.838,20.007 -11.514,27.683c-7.676,7.676 -16.904,11.514 -27.683,11.514l-274.381,0Zm0,-39.197l274.381,0l0,-274.381l-274.381,0l0,274.381Zm19.599,-39.197l235.184,0l-73.495,-97.993l-58.796,78.395l-44.097,-58.796l-58.796,78.395Zm-19.599,39.197l0,-274.381l0,274.381Z" style="fill:#fff;fill-rule:nonzero;"/><path d="M934.841,493.37c0,6.419 -1.632,12.505 -4.897,18.26c-3.265,5.755 -8.3,10.43 -15.106,14.027c-6.806,3.597 -15.632,5.395 -26.477,5.395c-5.423,0 -10.154,-0.249 -14.193,-0.747c-4.039,-0.498 -7.83,-1.3 -11.371,-2.407c-3.541,-1.107 -7.193,-2.545 -10.956,-4.316l0,-28.552c6.419,3.209 12.893,5.672 19.422,7.387c6.529,1.715 12.45,2.573 17.762,2.573c4.759,0 8.245,-0.83 10.458,-2.49c2.213,-1.66 3.32,-3.763 3.32,-6.308c0,-3.099 -1.632,-5.616 -4.897,-7.553c-3.265,-1.937 -8.77,-4.62 -16.517,-8.051c-5.865,-2.767 -10.956,-5.672 -15.272,-8.715c-4.316,-3.043 -7.636,-6.778 -9.96,-11.205c-2.324,-4.427 -3.486,-10.015 -3.486,-16.766c0,-7.636 1.881,-14.027 5.644,-19.173c3.763,-5.146 8.992,-9.019 15.687,-11.62c6.695,-2.601 14.47,-3.901 23.323,-3.901c7.747,0 14.719,0.858 20.916,2.573c6.197,1.715 11.731,3.68 16.6,5.893l-9.794,24.734c-5.091,-2.324 -10.098,-4.178 -15.023,-5.561c-4.925,-1.383 -9.49,-2.075 -13.695,-2.075c-4.095,0 -7.11,0.719 -9.047,2.158c-1.937,1.439 -2.905,3.265 -2.905,5.478c0,1.881 0.719,3.541 2.158,4.98c1.439,1.439 3.846,3.016 7.221,4.731c3.375,1.715 7.996,3.901 13.861,6.557c5.755,2.545 10.652,5.34 14.691,8.383c4.039,3.043 7.138,6.64 9.296,10.79c2.158,4.15 3.237,9.324 3.237,15.521Zm60.59,12.616c2.877,0 5.506,-0.304 7.885,-0.913c2.379,-0.609 4.842,-1.356 7.387,-2.241l0,23.074c-3.431,1.439 -7.083,2.656 -10.956,3.652c-3.873,0.996 -8.798,1.494 -14.774,1.494c-5.976,0 -11.205,-0.941 -15.687,-2.822c-4.482,-1.881 -7.996,-5.118 -10.541,-9.711c-2.545,-4.593 -3.818,-11.039 -3.818,-19.339l0,-37.848l-11.122,0l0,-12.948l14.11,-9.96l8.134,-19.256l20.75,0l0,18.426l22.576,0l0,23.738l-22.576,0l0,35.69c0,5.976 2.877,8.964 8.632,8.964Zm119.852,-68.392l0,91.798l-23.904,0l-3.984,-11.454l-1.826,0c-2.877,4.648 -6.806,7.996 -11.786,10.043c-4.98,2.047 -10.292,3.071 -15.936,3.071c-5.976,0 -11.399,-1.162 -16.268,-3.486c-4.869,-2.324 -8.715,-5.976 -11.537,-10.956c-2.822,-4.98 -4.233,-11.399 -4.233,-19.256l0,-59.76l31.706,0l0,50.132c0,5.976 0.858,10.513 2.573,13.612c1.715,3.099 4.51,4.648 8.383,4.648c5.976,0 9.988,-2.435 12.035,-7.304c2.047,-4.869 3.071,-11.841 3.071,-20.916l0,-40.172l31.706,0Zm49.634,93.458c-9.407,0 -17.181,-4.039 -23.323,-12.118c-6.142,-8.079 -9.213,-19.865 -9.213,-35.358c0,-15.715 3.126,-27.584 9.379,-35.607c6.253,-8.023 14.359,-12.035 24.319,-12.035c6.197,0 11.15,1.273 14.857,3.818c3.707,2.545 6.778,5.755 9.213,9.628l0.664,0c-0.443,-2.324 -0.802,-5.533 -1.079,-9.628c-0.277,-4.095 -0.415,-8.079 -0.415,-11.952l0,-24.568l31.872,0l0,126.16l-23.904,0l-6.806,-11.62l-1.162,0c-2.213,3.652 -5.257,6.778 -9.13,9.379c-3.873,2.601 -8.964,3.901 -15.272,3.901Zm12.948,-25.066c5.091,0 8.687,-1.605 10.79,-4.814c2.103,-3.209 3.209,-8.134 3.32,-14.774l0,-2.49c0,-7.193 -1.024,-12.727 -3.071,-16.6c-2.047,-3.873 -5.838,-5.81 -11.371,-5.81c-3.763,0 -6.889,1.826 -9.379,5.478c-2.49,3.652 -3.735,9.351 -3.735,17.098c0,7.636 1.245,13.197 3.735,16.683c2.49,3.486 5.727,5.229 9.711,5.229Zm80.51,-105.41c4.537,0 8.494,0.941 11.869,2.822c3.375,1.881 5.063,5.644 5.063,11.288c0,5.423 -1.688,9.102 -5.063,11.039c-3.375,1.937 -7.332,2.905 -11.869,2.905c-4.648,0 -8.604,-0.968 -11.869,-2.905c-3.265,-1.937 -4.897,-5.616 -4.897,-11.039c0,-5.644 1.632,-9.407 4.897,-11.288c3.265,-1.881 7.221,-2.822 11.869,-2.822Zm15.77,37.018l0,91.798l-31.706,0l0,-91.798l31.706,0Zm108.896,45.65c0,15.383 -4.095,27.196 -12.284,35.441c-8.189,8.245 -19.422,12.367 -33.698,12.367c-8.853,0 -16.711,-1.854 -23.572,-5.561c-6.861,-3.707 -12.256,-9.13 -16.185,-16.268c-3.929,-7.138 -5.893,-15.798 -5.893,-25.979c0,-15.161 4.095,-26.837 12.284,-35.026c8.189,-8.189 19.477,-12.284 33.864,-12.284c8.853,0 16.683,1.826 23.489,5.478c6.806,3.652 12.173,8.992 16.102,16.019c3.929,7.027 5.893,15.632 5.893,25.813Zm-59.428,0c0,7.857 1.051,13.861 3.154,18.011c2.103,4.15 5.644,6.225 10.624,6.225c4.869,0 8.328,-2.075 10.375,-6.225c2.047,-4.15 3.071,-10.154 3.071,-18.011c0,-7.857 -1.024,-13.778 -3.071,-17.762c-2.047,-3.984 -5.561,-5.976 -10.541,-5.976c-4.759,0 -8.217,1.992 -10.375,5.976c-2.158,3.984 -3.237,9.905 -3.237,17.762Z" style="fill:#fff;"/><path d="M911.933,687.092l-61.752,0l0,-18.26l14.774,-5.644l0,-70.882l-14.774,-5.478l0,-18.26l61.752,0l0,18.26l-14.774,5.478l0,70.882l14.774,5.644l0,18.26Zm127.82,-93.458c10.513,0 18.537,2.656 24.07,7.968c5.533,5.312 8.3,13.889 8.3,25.73l0,59.76l-31.706,0l0,-49.966c0,-6.972 -0.941,-11.814 -2.822,-14.525c-1.881,-2.711 -4.648,-4.067 -8.3,-4.067c-5.091,0 -8.632,2.241 -10.624,6.723c-1.992,4.482 -2.988,10.818 -2.988,19.007l0,42.828l-31.706,0l0,-49.966c0,-6.64 -0.885,-11.399 -2.656,-14.276c-1.771,-2.877 -4.427,-4.316 -7.968,-4.316c-5.423,0 -9.102,2.435 -11.039,7.304c-1.937,4.869 -2.905,11.897 -2.905,21.082l0,40.172l-31.706,0l0,-91.798l23.904,0l4.648,11.288l0.83,0c2.435,-3.763 5.948,-6.861 10.541,-9.296c4.593,-2.435 10.264,-3.652 17.015,-3.652c6.751,0 12.312,1.134 16.683,3.403c4.371,2.269 7.94,5.395 10.707,9.379l0.996,0c2.877,-4.095 6.612,-7.249 11.205,-9.462c4.593,-2.213 9.766,-3.32 15.521,-3.32Zm97.94,0c11.62,0 20.695,2.877 27.224,8.632c6.529,5.755 9.794,13.944 9.794,24.568l0,60.258l-21.912,0l-6.142,-12.118l-0.664,0c-2.545,3.209 -5.174,5.838 -7.885,7.885c-2.711,2.047 -5.838,3.541 -9.379,4.482c-3.541,0.941 -7.857,1.411 -12.948,1.411c-7.968,0 -14.608,-2.435 -19.92,-7.304c-5.312,-4.869 -7.968,-12.339 -7.968,-22.41c0,-9.849 3.403,-17.153 10.209,-21.912c6.806,-4.759 16.683,-7.415 29.631,-7.968l15.272,-0.498l0,-1.328c0,-4.095 -0.996,-7 -2.988,-8.715c-1.992,-1.715 -4.703,-2.573 -8.134,-2.573c-3.652,0 -7.691,0.636 -12.118,1.909c-4.427,1.273 -8.909,2.905 -13.446,4.897l-9.13,-20.916c5.312,-2.767 11.316,-4.842 18.011,-6.225c6.695,-1.383 14.193,-2.075 22.493,-2.075Zm-1.826,52.788c-5.755,0.221 -9.822,1.245 -12.201,3.071c-2.379,1.826 -3.569,4.399 -3.569,7.719c0,3.099 0.83,5.395 2.49,6.889c1.66,1.494 3.873,2.241 6.64,2.241c3.873,0 7.166,-1.217 9.877,-3.652c2.711,-2.435 4.067,-5.589 4.067,-9.462l0,-7.138l-7.304,0.332Zm88.976,-52.788c6.419,0 11.592,1.245 15.521,3.735c3.929,2.49 7.11,5.561 9.545,9.213l0.664,0l2.324,-11.288l27.39,0l0,91.964c0,12.948 -4.012,22.797 -12.035,29.548c-8.023,6.751 -20.335,10.126 -36.935,10.126c-7.415,0 -13.944,-0.387 -19.588,-1.162c-5.644,-0.775 -11.067,-2.158 -16.268,-4.15l0,-26.394c5.533,2.324 10.79,4.067 15.77,5.229c4.98,1.162 11.067,1.743 18.26,1.743c12.727,0 19.09,-4.537 19.09,-13.612l0,-1.66c0,-3.209 0.332,-7.027 0.996,-11.454l-0.996,0c-2.103,3.652 -5.091,6.778 -8.964,9.379c-3.873,2.601 -8.964,3.901 -15.272,3.901c-9.739,0 -17.651,-4.039 -23.738,-12.118c-6.087,-8.079 -9.13,-19.865 -9.13,-35.358c0,-15.493 3.099,-27.307 9.296,-35.441c6.197,-8.134 14.221,-12.201 24.07,-12.201Zm11.952,24.568c-8.743,0 -13.114,7.857 -13.114,23.572c0,7.968 1.107,13.695 3.32,17.181c2.213,3.486 5.644,5.229 10.292,5.229c5.201,0 8.798,-1.632 10.79,-4.897c1.992,-3.265 2.988,-8.162 2.988,-14.691l0,-3.818c0,-7.193 -0.968,-12.754 -2.905,-16.683c-1.937,-3.929 -5.727,-5.893 -11.371,-5.893Zm105.908,-24.568c13.391,0 23.959,3.486 31.706,10.458c7.747,6.972 11.62,17.485 11.62,31.54l0,14.11l-56.606,0c0.221,4.759 2.02,8.687 5.395,11.786c3.375,3.099 8.272,4.648 14.691,4.648c5.755,0 11.011,-0.553 15.77,-1.66c4.759,-1.107 9.683,-2.877 14.774,-5.312l0,22.742c-4.427,2.324 -9.268,4.039 -14.525,5.146c-5.257,1.107 -11.869,1.66 -19.837,1.66c-9.296,0 -17.568,-1.632 -24.817,-4.897c-7.249,-3.265 -12.976,-8.383 -17.181,-15.355c-4.205,-6.972 -6.308,-15.881 -6.308,-26.726c0,-11.067 1.909,-20.141 5.727,-27.224c3.818,-7.083 9.13,-12.339 15.936,-15.77c6.806,-3.431 14.691,-5.146 23.655,-5.146Zm1.162,21.58c-3.763,0 -6.889,1.162 -9.379,3.486c-2.49,2.324 -3.956,6.031 -4.399,11.122l27.224,0c-0.111,-4.095 -1.3,-7.553 -3.569,-10.375c-2.269,-2.822 -5.561,-4.233 -9.877,-4.233Zm127.488,43.658c0,5.755 -1.3,10.901 -3.901,15.438c-2.601,4.537 -6.751,8.079 -12.45,10.624c-5.699,2.545 -13.197,3.818 -22.493,3.818c-6.529,0 -12.367,-0.36 -17.513,-1.079c-5.146,-0.719 -10.375,-2.075 -15.687,-4.067l0,-25.398c5.865,2.656 11.786,4.565 17.762,5.727c5.976,1.162 10.679,1.743 14.11,1.743c6.861,0 10.292,-1.549 10.292,-4.648c0,-1.328 -0.553,-2.49 -1.66,-3.486c-1.107,-0.996 -3.071,-2.103 -5.893,-3.32c-2.822,-1.217 -6.834,-2.877 -12.035,-4.98c-7.636,-3.209 -13.335,-6.889 -17.098,-11.039c-3.763,-4.15 -5.644,-9.988 -5.644,-17.513c0,-8.964 3.458,-15.715 10.375,-20.252c6.917,-4.537 16.074,-6.806 27.473,-6.806c6.087,0 11.786,0.664 17.098,1.992c5.312,1.328 10.845,3.265 16.6,5.81l-8.632,20.418c-4.537,-2.103 -9.13,-3.763 -13.778,-4.98c-4.648,-1.217 -8.355,-1.826 -11.122,-1.826c-5.201,0 -7.802,1.273 -7.802,3.818c0,1.107 0.47,2.103 1.411,2.988c0.941,0.885 2.739,1.881 5.395,2.988c2.656,1.107 6.529,2.711 11.62,4.814c5.312,2.103 9.711,4.399 13.197,6.889c3.486,2.49 6.087,5.478 7.802,8.964c1.715,3.486 2.573,7.94 2.573,13.363Z" style="fill:#fff;"/></g><defs><radialGradient id="_Radial1" cx="0" cy="0" r="1" gradientUnits="userSpaceOnUse" gradientTransform="matrix(0,1022.208,-1679.52,0,473.39383,271.872181)"><stop offset="0" style="stop-color:#2f2f2f;stop-opacity:0.98"/><stop offset="1" style="stop-color:#111;stop-opacity:0.98"/></radialGradient></defs></svg>